<svg width="104" height="24" viewBox="0 0 104 24" fill="none" xmlns="http://www.w3.org/2000/svg">
<g clip-path="url(#clip0_748_3120)">
<path d="M9.00835 5.97656L9.2648 6.49413L9.52089 5.97656H9.00835ZM9.00835 5.97656L8.75189 5.45862L8.49543 5.97656H9.00835ZM9.52089 5.97656H10.0338L9.77734 5.45862L9.52089 5.97656ZM4.90616 18.4019L5.16262 18.9195L5.41907 18.4019H4.90616ZM4.6497 17.8844L4.39362 18.4019H4.90616L4.6497 17.8844ZM3.88107 16.3309L4.13753 16.8489L4.39362 16.3309H3.88107ZM4.39362 17.3664L4.6497 17.8844L4.90616 17.3664H4.39362L4.13753 16.8489L3.88107 17.3664H4.39362ZM3.88107 16.3309L3.62462 15.8133L3.36816 16.3309H3.88107ZM4.39362 16.3309H4.90653L4.65007 15.8133L4.39362 16.3309ZM5.93162 18.4019L5.67553 17.8844L5.41907 18.4019H5.93162ZM9.00835 10.1182L9.2648 10.6362L9.52089 10.1182H9.00835ZM9.00835 11.1537H9.52089L9.2648 10.6362L9.00835 11.1537ZM9.00835 12.1892L9.2648 12.7068L9.52089 12.1892H9.00835ZM9.00835 13.2248H9.52089L9.2648 12.7068L9.00835 13.2248ZM9.00835 14.2603L9.2648 14.7778L9.52089 14.2603H9.00835ZM9.00835 15.2954H9.52089L9.2648 14.7778L9.00835 15.2954ZM9.00835 16.3309L9.2648 16.8489L9.52089 16.3309H9.00835ZM9.00835 17.3664H9.52089L9.2648 16.8489L9.00835 17.3664ZM9.00835 17.3664H8.49543L8.75189 17.8844L9.00835 17.3664ZM8.75189 15.8133L8.49543 16.3309H9.00835L8.75189 15.8133ZM9.00835 15.2954H8.49543L8.75189 15.8133L9.00835 15.2954ZM8.75189 13.7423L8.49543 14.2603H9.00835L8.75189 13.7423ZM9.00835 13.2248H8.49543L8.75189 13.7423L9.00835 13.2248ZM8.75189 11.6713L8.49543 12.1892H9.00835L8.75189 11.6713ZM9.00835 11.1537H8.49543L8.75189 11.6713L9.00835 11.1537ZM9.00835 10.1182L8.75189 9.60066L8.49543 10.1182H9.00835ZM9.77734 9.60066L10.0338 9.08272H9.52089L9.77734 9.60066ZM9.52089 10.1182H10.0338L9.77734 9.60066L9.52089 10.1182ZM9.77734 11.6713L10.0338 11.1537H9.52089L9.77734 11.6713ZM9.52089 12.1892H10.0338L9.77734 11.6713L9.52089 12.1892ZM9.77734 13.7423L10.0338 13.2248H9.52089L9.77734 13.7423ZM9.52089 14.2603H10.0338L9.77734 13.7423L9.52089 14.2603ZM9.77734 15.8133L10.0338 15.2954H9.52089L9.77734 15.8133ZM9.52089 16.3309H10.0338L9.77734 15.8133L9.52089 16.3309ZM9.77734 17.8844L10.0338 17.3664H9.52089L9.77734 17.8844ZM10.0338 17.3664H10.5467L10.8028 17.8844L10.5467 18.4019H10.0338L9.77734 17.8844L9.52089 18.4019H9.00835L8.75189 17.8844L8.49543 18.4019H7.98362L8.24008 18.9195L7.98362 19.4375H7.47108L7.21463 18.9195L7.47108 18.4019H7.98289L7.72643 17.8844L7.46998 18.4019H6.9578L7.21463 18.9195L6.9578 19.4375H6.44489L6.18844 18.9195L6.44489 18.4019H6.9578L6.70098 17.8844L6.44453 18.4019H5.93162L6.18844 18.9195L5.93162 19.4375H5.41907L5.16262 18.9195L4.90616 19.4375H4.39362L4.13716 18.9195L4.39362 18.4019H3.88071L3.62425 17.8844L3.36779 18.4019H2.85525L2.5988 17.8844L2.85525 17.3664H3.36779L3.62425 17.8844L3.88107 17.3664H3.36779L3.11171 16.8489L3.36816 16.3309H2.85562L2.59916 15.8133L2.85562 15.2954H3.36816L3.62462 15.8133L3.88107 15.2954H4.39362L4.65007 15.8133L4.90653 15.2954H5.41944L5.67553 15.8133L5.41944 16.3309H4.90653L5.16298 16.8489L4.90616 17.3664H5.41907L5.67553 17.8844L5.93162 17.3664H6.44453L6.70098 17.8844L6.95744 17.3664H7.46998L7.72643 17.8844L7.98289 17.3664H8.49543L8.23898 16.8489L8.49543 16.3309H7.98289L7.72643 15.8133L7.98289 15.2954H8.49543L8.23898 14.7778L8.49543 14.2603H7.98289L7.72643 13.7423L7.98289 13.2248H8.49543L8.23898 12.7068L8.49543 12.1892H7.98289L7.72643 11.6713L7.98289 11.1537H8.49543L8.23898 10.6362L8.49543 10.1182H7.98289L7.72643 9.60066L7.98289 9.08272H8.49507L8.23861 8.56515L8.49507 8.04721H7.98216L7.7257 7.52964L7.98216 7.01207H8.49507L8.75116 7.52964L8.49507 8.04721H9.00761L9.26407 8.56515L9.00761 9.08272H8.49507L8.75189 9.60066L9.00835 9.08272H9.52089L9.2648 8.56515L9.52089 8.04721H10.0338L9.77734 7.52964L10.0338 7.01207H9.52089L9.2648 6.49413L9.00835 7.01207H9.52089L9.77734 7.52964L9.52089 8.04721H9.00761L8.75116 7.52964L9.00798 7.01207H8.49507L8.23898 6.49413L8.49543 5.97656H7.98289L7.72643 5.45862L7.98289 4.94105H8.49543L8.75189 5.45862L9.00835 4.94105H9.52089L9.77734 5.45862L10.0338 4.94105H10.5467L10.8028 5.45862L10.5467 5.97656H10.0338L10.2903 6.49413L10.0338 7.01207H10.5467L10.8028 7.52964L10.5467 8.04721H10.0338L10.2903 8.56515L10.0338 9.08272H10.5467L10.8028 9.60066L10.5467 10.1182H10.0338L10.2903 10.6362L10.0338 11.1537H10.5467L10.8028 11.6713L10.5467 12.1892H10.0338L10.2903 12.7068L10.0338 13.2248H10.5467L10.8028 13.7423L10.5467 14.2603H10.0338L10.2903 14.7778L10.0338 15.2954H10.5467L10.8028 15.8133L10.5467 16.3309H10.0338L10.2903 16.8489L10.0338 17.3664ZM13.4264 18.5878V5.4115C13.4264 4.92522 13.1069 4.302 12.7125 4.01928L7.55913 0.324505C7.1651 0.0421609 6.52561 0.0421609 6.13157 0.324873L0.978614 4.01928C0.584209 4.302 0.264648 4.92522 0.264648 5.4115V18.5878C0.264648 19.0741 0.584209 19.6973 0.978614 19.9801L6.13157 23.6748C6.52561 23.9575 7.1651 23.9575 7.55913 23.6748L12.7125 19.9801C13.1069 19.6973 13.4264 19.0741 13.4264 18.5878Z" fill="white"/>
<path d="M20.5055 5.97656L20.7619 6.49413L21.0184 5.97656H20.5055ZM20.5055 5.97656L20.249 5.45862L19.9926 5.97656H20.5055ZM21.0184 5.97656H21.5309L21.2745 5.45862L21.0184 5.97656ZM20.5055 10.1182L20.7619 10.6362L21.0184 10.1182H20.5055ZM20.5055 11.1537H21.0184L20.7619 10.6362L20.5055 11.1537ZM20.5055 12.1892L20.7619 12.7068L21.0184 12.1892H20.5055ZM20.5055 13.2248H21.0184L20.7619 12.7068L20.5055 13.2248ZM20.5055 14.2603L20.7619 14.7778L21.0184 14.2603H20.5055ZM20.5055 15.2954H21.0184L20.7619 14.7778L20.5055 15.2954ZM20.5055 16.3309L20.7619 16.8489L21.0184 16.3309H20.5055ZM20.5055 17.3664H21.0184L20.7619 16.8489L20.5055 17.3664ZM20.5055 17.3664H19.9926L20.249 17.8844L20.5055 17.3664ZM20.249 15.8133L19.9926 16.3309H20.5055L20.249 15.8133ZM20.5055 15.2954H19.9926L20.249 15.8133L20.5055 15.2954ZM20.249 13.7423L19.9926 14.2603H20.5055L20.249 13.7423ZM20.5055 13.2248H19.9926L20.249 13.7423L20.5055 13.2248ZM20.249 11.6713L19.9926 12.1892H20.5055L20.249 11.6713ZM20.5055 11.1537H19.9926L20.249 11.6713L20.5055 11.1537ZM20.5055 10.1182L20.249 9.60066L19.9926 10.1182H20.5055ZM21.2745 9.60066L21.5309 9.08272H21.0184L21.2745 9.60066ZM21.0184 10.1182H21.5309L21.2745 9.60066L21.0184 10.1182ZM21.2745 11.6713L21.5309 11.1537H21.0184L21.2745 11.6713ZM21.0184 12.1892H21.5309L21.2745 11.6713L21.0184 12.1892ZM21.2745 13.7423L21.5309 13.2248H21.0184L21.2745 13.7423ZM21.0184 14.2603H21.5309L21.2745 13.7423L21.0184 14.2603ZM21.2745 15.8133L21.5309 15.2954H21.0184L21.2745 15.8133ZM21.0184 16.3309H21.5309L21.2745 15.8133L21.0184 16.3309ZM21.2745 17.8844L21.5309 17.3664H21.0184L21.2745 17.8844ZM21.5309 17.3664H22.0438L22.3003 17.8844L22.0438 18.4019H21.5309L21.2745 17.8844L21.0184 18.4019H20.5055L20.249 17.8844L19.9926 18.4019H19.48L19.2236 17.8844L19.48 17.3664H19.9926L19.7365 16.8489L19.9926 16.3309H19.48L19.2236 15.8133L19.48 15.2954H19.9926L19.7365 14.7778L19.9926 14.2603H19.48L19.2236 13.7423L19.48 13.2248H19.9926L19.7365 12.7068L19.9926 12.1892H19.48L19.2236 11.6713L19.48 11.1537H19.9926L19.7365 10.6362L19.9926 10.1182H19.48L19.2236 9.60066L19.48 9.08272H19.9922L19.7357 8.56515L19.9922 8.04721H19.4793L19.2228 7.52964L19.4793 7.01207H19.9922L20.2483 7.52964L19.9922 8.04721H20.5047L20.7612 8.56515L20.5047 9.08272H19.9922L20.249 9.60066L20.5055 9.08272H21.0184L20.7619 8.56515L21.0184 8.04721H21.5309L21.2745 7.52964L21.5309 7.01207H21.0184L20.7619 6.49413L20.5055 7.01207H21.018L21.2745 7.52964L21.018 8.04721H20.5047L20.2486 7.52964L20.5055 7.01207H19.9922L19.7365 6.49413L19.9926 5.97656H19.48L19.2236 5.45862L19.48 4.94105H19.9926L20.249 5.45862L20.5055 4.94105H21.0184L21.2745 5.45862L21.5309 4.94105H22.0438L22.3003 5.45862L22.0438 5.97656H21.5309L21.7874 6.49413L21.5309 7.01207H22.0438L22.3003 7.52964L22.0438 8.04721H21.5309L21.7874 8.56515L21.5309 9.08272H22.0438L22.3003 9.60066L22.0438 10.1182H21.5309L21.7874 10.6362L21.5309 11.1537H22.0438L22.3003 11.6713L22.0438 12.1892H21.5309L21.7874 12.7068L21.5309 13.2248H22.0438L22.3003 13.7423L22.0438 14.2603H21.5309L21.7874 14.7778L21.5309 15.2954H22.0438L22.3003 15.8133L22.0438 16.3309H21.5309L21.7874 16.8489L21.5309 17.3664ZM27.3424 18.5878V5.4115C27.3424 4.92522 27.0229 4.302 26.6285 4.01928L21.4751 0.324505C21.0811 0.0421609 20.4416 0.0421609 20.0472 0.324873L14.8946 4.01928C14.5002 4.302 14.1807 4.92522 14.1807 5.4115V18.5878C14.1807 19.0741 14.5002 19.6973 14.8946 19.9801L20.0472 23.6748C20.4416 23.9575 21.0811 23.9575 21.4751 23.6748L26.6285 19.9801C27.0229 19.6973 27.3424 19.0741 27.3424 18.5878Z" fill="white"/>
<path d="M34.4225 5.97656L34.6789 6.49413L34.9354 5.97656H34.4225ZM34.4225 5.97656L34.166 5.45862L33.9095 5.97656H34.4225ZM34.9354 5.97656H35.4479L35.1915 5.45862L34.9354 5.97656ZM34.4225 10.1182L34.6789 10.6362L34.9354 10.1182H34.4225ZM34.4225 11.1537H34.9354L34.6789 10.6362L34.4225 11.1537ZM34.4225 12.1892L34.6789 12.7068L34.9354 12.1892H34.4225ZM34.4225 13.2248H34.9354L34.6789 12.7068L34.4225 13.2248ZM34.4225 14.2603L34.6789 14.7778L34.9354 14.2603H34.4225ZM34.4225 15.2954H34.9354L34.6789 14.7778L34.4225 15.2954ZM34.4225 16.3309L34.6789 16.8489L34.9354 16.3309H34.4225ZM34.4225 17.3664H34.9354L34.6789 16.8489L34.4225 17.3664ZM34.4225 17.3664H33.9095L34.166 17.8844L34.4225 17.3664ZM34.166 15.8133L33.9095 16.3309H34.4225L34.166 15.8133ZM34.4225 15.2954H33.9095L34.166 15.8133L34.4225 15.2954ZM34.166 13.7423L33.9095 14.2603H34.4225L34.166 13.7423ZM34.4225 13.2248H33.9095L34.166 13.7423L34.4225 13.2248ZM34.166 11.6713L33.9095 12.1892H34.4225L34.166 11.6713ZM34.4225 11.1537H33.9095L34.166 11.6713L34.4225 11.1537ZM34.4225 10.1182L34.166 9.60066L33.9095 10.1182H34.4225ZM35.1915 9.60066L35.4479 9.08272H34.9354L35.1915 9.60066ZM34.9354 10.1182H35.4479L35.1915 9.60066L34.9354 10.1182ZM35.1915 11.6713L35.4479 11.1537H34.9354L35.1915 11.6713ZM34.9354 12.1892H35.4479L35.1915 11.6713L34.9354 12.1892ZM35.1915 13.7423L35.4479 13.2248H34.9354L35.1915 13.7423ZM34.9354 14.2603H35.4479L35.1915 13.7423L34.9354 14.2603ZM35.1915 15.8133L35.4479 15.2954H34.9354L35.1915 15.8133ZM34.9354 16.3309H35.4479L35.1915 15.8133L34.9354 16.3309ZM35.1915 17.8844L35.4479 17.3664H34.9354L35.1915 17.8844ZM35.4479 17.3664H35.9608L36.2173 17.8844L35.9608 18.4019H35.4479L35.1915 17.8844L34.9354 18.4019H34.4225L34.166 17.8844L33.9095 18.4019H33.397L33.1405 17.8844L33.397 17.3664H33.9095L33.6535 16.8489L33.9095 16.3309H33.397L33.1405 15.8133L33.397 15.2954H33.9095L33.6535 14.7778L33.9095 14.2603H33.397L33.1405 13.7423L33.397 13.2248H33.9095L33.6535 12.7068L33.9095 12.1892H33.397L33.1405 11.6713L33.397 11.1537H33.9095L33.6535 10.6362L33.9095 10.1182H33.397L33.1405 9.60066L33.397 9.08272H33.9092L33.6527 8.56515L33.9092 8.04721H33.3963L33.1398 7.52964L33.3963 7.01207H33.9092L34.1656 7.52964L33.9092 8.04721H34.4217L34.6782 8.56515L34.4217 9.08272H33.9092L34.166 9.60066L34.4225 9.08272H34.9354L34.6789 8.56515L34.9354 8.04721H35.4479L35.1915 7.52964L35.4479 7.01207H34.9354L34.6789 6.49413L34.4225 7.01207H34.935L35.1915 7.52964L34.935 8.04721H34.4217L34.1656 7.52964L34.4225 7.01207H33.9092L33.6535 6.49413L33.9095 5.97656H33.397L33.1405 5.45862L33.397 4.94105H33.9095L34.166 5.45862L34.4225 4.94105H34.9354L35.1915 5.45862L35.4479 4.94105H35.9608L36.2173 5.45862L35.9608 5.97656H35.4479L35.7044 6.49413L35.4479 7.01207H35.9608L36.2173 7.52964L35.9608 8.04721H35.4479L35.7044 8.56515L35.4479 9.08272H35.9608L36.2173 9.60066L35.9608 10.1182H35.4479L35.7044 10.6362L35.4479 11.1537H35.9608L36.2173 11.6713L35.9608 12.1892H35.4479L35.7044 12.7068L35.4479 13.2248H35.9608L36.2173 13.7423L35.9608 14.2603H35.4479L35.7044 14.7778L35.4479 15.2954H35.9608L36.2173 15.8133L35.9608 16.3309H35.4479L35.7044 16.8489L35.4479 17.3664ZM41.2594 18.5878V5.4115C41.2594 4.92522 40.9399 4.302 40.5455 4.01928L35.3921 0.324505C34.9981 0.0421609 34.3586 0.0421609 33.9646 0.324873L28.8116 4.01928C28.4172 4.302 28.0977 4.92522 28.0977 5.4115V18.5878C28.0977 19.0741 28.4172 19.6973 28.8116 19.9801L33.9646 23.6748C34.3586 23.9575 34.9981 23.9575 35.3921 23.6748L40.5455 19.9801C40.9399 19.6973 41.2594 19.0741 41.2594 18.5878Z" fill="white"/>
<path d="M71.6039 16.0723C71.6523 15.843 71.8813 15.4119 72.4771 15.4119C73.0729 15.4119 73.3015 15.843 73.3503 16.0723H71.6039ZM73.1907 17.2193C73.0315 17.4211 72.8444 17.5808 72.491 17.5808C72.0405 17.5808 71.6593 17.3099 71.59 16.8509H74.4726C74.4865 16.7607 74.5005 16.6981 74.5005 16.5449C74.5005 15.3699 73.6412 14.4382 72.4701 14.4382C71.299 14.4382 70.4537 15.4325 70.4537 16.5103C70.4537 17.6574 71.3893 18.5545 72.491 18.5545C72.8858 18.5545 73.267 18.4363 73.5858 18.2066C73.9113 17.9843 74.1817 17.6504 74.3688 17.2193H73.1907ZM69.4004 13.2842H68.2502V14.5704H67.6819V15.4465H68.2502V18.4293H69.4004V15.4465H69.9547V14.5704H69.4004V13.2842ZM66.9818 14.5704H65.8316V16.6911C65.8316 17.3029 65.5058 17.4767 65.1734 17.4767C64.5567 17.4767 64.5567 16.969 64.5567 16.7051V14.5704H63.4065V16.8788C63.4065 17.4071 63.448 17.6854 63.7528 18.0678C64.0922 18.4989 64.6466 18.5545 64.8825 18.5545C65.1734 18.5545 65.6445 18.5125 65.8801 18.0189H65.894V18.4293H66.9818V14.5704ZM62.1591 13.2842H61.0089V14.5704H60.4406V15.4465H61.0089V18.4293H62.1591V15.4465H62.7135V14.5704H62.1591V13.2842ZM59.7406 13.2842H58.5904V14.1603H59.7406V13.2842ZM59.7406 14.5704H58.5904V18.429H59.7406V14.5704ZM57.3294 13.2842H56.1788V14.5704H55.6109V15.4465H56.1788V18.4293H57.3294V15.4465H57.8837V14.5704H57.3294V13.2842ZM55.0495 15.6552C54.9523 14.64 54.0795 14.4382 53.5735 14.4382C52.7766 14.4382 52.0836 14.9459 52.0836 15.7108C52.0836 16.2321 52.4993 16.5589 52.9982 16.7187C53.7327 17.004 54.0171 17.0386 54.0171 17.3375C54.0171 17.5252 53.8091 17.6368 53.615 17.6368C53.5665 17.6368 53.2272 17.6368 53.1784 17.2819H52.0352C52.139 18.2972 53.0191 18.5615 53.601 18.5615C54.4537 18.5615 55.1673 18.0609 55.1673 17.2473C55.1673 16.4128 54.4742 16.2184 53.823 16.0373C53.5181 15.9471 53.2338 15.829 53.2338 15.6202C53.2338 15.5161 53.3171 15.3629 53.5596 15.3629C53.8993 15.3629 53.9129 15.5717 53.9199 15.6552H55.0495ZM47.6974 18.4293H48.8476V16.3296C48.8476 16.0933 48.8476 15.5231 49.5058 15.5231C50.1086 15.5231 50.1086 16.0513 50.1086 16.3226V18.4293H51.2592V16.0167C51.2592 15.2588 51.0236 14.9528 50.8156 14.7721C50.6076 14.5914 50.1989 14.4382 49.8316 14.4382C49.1455 14.4382 48.903 14.7931 48.7852 14.9808H48.7713V14.5704H47.6974V18.4293ZM45.2998 18.4293H46.6096V13.2842H45.2998V18.4293Z" fill="white"/>
<path d="M102.233 9.20996L103.736 7.10323V6.22712H100.875V7.10323H102.496L100.875 9.29315V10.0861H103.736V9.20996H102.233ZM100.285 7.31195C100.189 6.29669 99.3154 6.09496 98.8095 6.09496C98.0126 6.09496 97.3199 6.60259 97.3199 7.36754C97.3199 7.88879 97.7356 8.21568 98.2346 8.37544C98.9691 8.66073 99.2531 8.69533 99.2531 8.99424C99.2531 9.18198 99.0454 9.29315 98.8513 9.29315C98.8029 9.29315 98.4632 9.29315 98.4147 8.93866H97.2711C97.3753 9.95392 98.2551 10.2179 98.8374 10.2179C99.6897 10.2179 100.404 9.71759 100.404 8.90405C100.404 8.06954 99.7106 7.8748 99.059 7.69406C98.7541 7.60387 98.4701 7.4857 98.4701 7.27698C98.4701 7.17281 98.5534 7.01967 98.7959 7.01967C99.1353 7.01967 99.1492 7.22839 99.1562 7.31195H100.285ZM96.4816 6.22712H95.331V8.34783C95.331 8.95964 95.0056 9.13339 94.6728 9.13339C94.0561 9.13339 94.0561 8.62576 94.0561 8.36182V6.22712H92.9059V8.53557C92.9059 9.06382 92.9474 9.34211 93.2522 9.72422C93.592 10.1553 94.1463 10.2112 94.3819 10.2112C94.6728 10.2112 95.1439 10.1693 95.3798 9.67563H95.3934V10.0861H96.4816V6.22712ZM89.0668 8.1531C89.0668 7.58988 89.4898 7.1798 89.9884 7.1798C90.4874 7.1798 90.9104 7.58988 90.9104 8.1531C90.9104 8.71631 90.4874 9.1264 89.9884 9.1264C89.4898 9.1264 89.0668 8.71631 89.0668 8.1531ZM87.9166 8.1531C87.9166 9.09879 88.5887 10.2042 89.9884 10.2042C91.3884 10.2042 92.0606 9.09879 92.0606 8.1531C92.0606 7.20741 91.3884 6.10196 89.9884 6.10196C88.5887 6.10196 87.9166 7.20741 87.9166 8.1531ZM82.7126 10.0861H84.0224V8.02794H85.6991V10.0861H87.0089V4.94092H85.6991V6.8739H84.0224V4.94092H82.7126V10.0861ZM78.077 10.0861H79.2272V7.98634C79.2272 7.74964 79.2272 7.1798 79.8854 7.1798C80.4882 7.1798 80.4882 7.70805 80.4882 7.97935V10.0861H81.6387V7.67344C81.6387 6.91549 81.4028 6.60959 81.1952 6.42884C80.9871 6.2481 80.5784 6.09496 80.2112 6.09496C79.5251 6.09496 79.2826 6.44983 79.1648 6.63756H79.1509V6.22712H78.077V10.0861ZM74.3347 7.72903C74.3835 7.49969 74.6121 7.06863 75.2079 7.06863C75.8041 7.06863 76.0327 7.49969 76.0811 7.72903H74.3347ZM75.9219 8.87608C75.7623 9.07781 75.5752 9.23757 75.2218 9.23757C74.7713 9.23757 74.3905 8.96663 74.3211 8.50759H77.2038C77.2177 8.4174 77.2313 8.35483 77.2313 8.20169C77.2313 7.02666 76.372 6.09496 75.2009 6.09496C74.0298 6.09496 73.1845 7.08924 73.1845 8.16709C73.1845 9.31414 74.1201 10.2112 75.2218 10.2112C75.617 10.2112 75.9978 10.0927 76.3166 9.86336C76.6424 9.64102 76.9128 9.30714 77.0996 8.87608H75.9219ZM69.3527 8.13911C69.3527 7.57589 69.7893 7.1798 70.2813 7.1798C70.7939 7.1798 71.2165 7.55528 71.2165 8.17408C71.2165 8.7303 70.8287 9.13339 70.2743 9.13339C69.7959 9.13339 69.3527 8.75791 69.3527 8.13911ZM72.3671 6.22712H71.2165V6.58861H71.2029C70.9949 6.25509 70.5723 6.10196 70.1426 6.10196C69.1447 6.10196 68.2022 6.85991 68.2022 8.18071C68.2022 9.41831 69.0963 10.2112 70.1426 10.2112C70.7454 10.2112 71.0782 9.88435 71.196 9.66164H71.2095V9.78017C71.2095 10.816 70.4196 10.83 70.2743 10.83C70.198 10.83 69.7684 10.83 69.6022 10.4476H68.2715C68.3478 10.9968 68.8538 11.8033 70.1911 11.8033C71.1406 11.8033 71.8402 11.3793 72.1381 10.8926C72.3253 10.5657 72.3671 10.1972 72.3671 9.62004V6.22712ZM63.7951 10.0861H64.9457V7.98634C64.9457 7.74964 64.9457 7.1798 65.6039 7.1798C66.2066 7.1798 66.2066 7.70805 66.2066 7.97935V10.0861H67.3568V7.67344C67.3568 6.91549 67.1213 6.60959 66.9136 6.42884C66.7056 6.2481 66.2969 6.09496 65.9297 6.09496C65.2436 6.09496 65.0011 6.44983 64.8833 6.63756H64.8693V6.22712H63.7951V10.0861ZM61.3975 10.0861H62.7073V4.94092H61.3975V10.0861ZM54.4126 10.0861H55.5632V7.98634C55.5632 7.74964 55.5632 7.1798 56.2214 7.1798C56.8242 7.1798 56.8242 7.70805 56.8242 7.97935V10.0861H57.9744V7.67344C57.9744 6.91549 57.7389 6.60959 57.5312 6.42884C57.3232 6.2481 56.9145 6.09496 56.5472 6.09496C55.8611 6.09496 55.6186 6.44983 55.5008 6.63756H55.4869V6.22712H54.4126V10.0861ZM50.2965 8.16709C50.2965 7.72903 50.5878 7.17281 51.246 7.17281C51.8972 7.17281 52.2161 7.68706 52.2161 8.1531C52.2161 8.52858 51.9736 9.14038 51.253 9.14038C50.5599 9.14038 50.2965 8.52858 50.2965 8.16709ZM53.3663 6.22712H52.2161V6.63756H52.2021C52.0638 6.40087 51.7101 6.09496 51.0798 6.09496C50.054 6.09496 49.1463 6.88752 49.1463 8.1531C49.1463 9.25855 49.8599 10.2179 51.0798 10.2179C51.53 10.2179 52.0084 10.0441 52.2021 9.66863H52.2161V10.0861H53.3663V6.22712ZM47.0606 4.94092V8.37544C47.0606 8.61177 47.0606 9.02921 46.6654 9.02921C46.3191 9.02921 46.2846 8.66772 46.2706 8.43103H44.8779C44.8845 10.1833 46.4783 10.1833 46.603 10.1833C47.1229 10.1833 47.7052 9.96092 48.0515 9.50887C48.2731 9.23057 48.3703 8.92467 48.3703 8.04892V4.94092H47.0606Z" fill="white"/>
</g>
<defs>
<clipPath id="clip0_748_3120">
<rect width="104" height="24" fill="white"/>
</clipPath>
</defs>
</svg>
