<svg width="106" height="35" viewBox="0 0 106 35" fill="none" xmlns="http://www.w3.org/2000/svg">
<path d="M5.90787 22.6742C4.07173 21.6929 2.62814 20.2906 1.57708 18.4675C0.526023 16.6448 0 14.513 0 12.0731C0 9.66133 0.53245 7.53695 1.59784 5.69995C2.66274 3.86344 4.12068 2.45428 5.97065 1.47198C7.82113 0.490659 9.89506 0 12.1939 0C14.4918 0 16.5668 0.490659 18.4167 1.47198C20.2667 2.45428 21.7241 3.86344 22.7895 5.69995C23.8549 7.53695 24.3874 9.66133 24.3874 12.0731C24.3874 14.4853 23.8475 16.6097 22.7688 18.4462C21.6895 20.2832 20.2178 21.6929 18.3539 22.6742C16.4891 23.6565 14.4078 24.1462 12.1099 24.1462C9.81102 24.1462 7.74351 23.6565 5.90787 22.6742ZM15.6205 16.4059C16.588 15.3964 17.0715 13.9521 17.0715 12.0731C17.0715 10.1945 16.6019 8.74975 15.663 7.74024C14.7232 6.73073 13.5668 6.22573 12.1939 6.22573C10.7919 6.22573 9.62908 6.72381 8.70409 7.71897C7.77911 8.71513 7.31636 10.1663 7.31636 12.0731C7.31636 13.9521 7.77169 15.3964 8.68284 16.4059C9.59349 17.4154 10.736 17.9204 12.1099 17.9204C13.4828 17.9204 14.6535 17.4154 15.6205 16.4059Z" fill="#FFF381"/>
<path d="M38.3047 1.00951C39.5377 0.336339 40.9813 0 42.6355 0C44.57 0 46.3211 0.490659 47.8913 1.47198C49.4609 2.45428 50.7013 3.85602 51.6125 5.67868C52.5231 7.50233 52.9795 9.61929 52.9795 12.031C52.9795 14.4433 52.5231 16.5676 51.6125 18.4042C50.7013 20.2412 49.4609 21.6577 47.8913 22.6529C46.3211 23.6486 44.57 24.1462 42.6355 24.1462C41.0095 24.1462 39.5728 23.8098 38.326 23.1366C37.0781 22.4635 36.1037 21.5949 35.4037 20.5285V35H28.2134V0.336339H35.4037V3.65966C36.1037 2.56607 37.0707 1.68268 38.3047 1.00951ZM44.1706 7.80306C43.1749 6.7797 41.9483 6.26777 40.4914 6.26777C39.0616 6.26777 37.8489 6.78712 36.8542 7.82433C35.859 8.86203 35.3617 10.2786 35.3617 12.0731C35.3617 13.868 35.859 15.2846 36.8542 16.3218C37.8489 17.3595 39.0616 17.8784 40.4914 17.8784C41.9206 17.8784 43.1403 17.3526 44.1493 16.3011C45.1583 15.249 45.6631 13.826 45.6631 12.031C45.6631 10.2366 45.1652 8.82741 44.1706 7.80306Z" fill="#FFF381"/>
<path d="M78.7534 13.7978H62.4813C62.593 15.2564 63.0627 16.3713 63.8893 17.1424C64.7159 17.914 65.7323 18.2988 66.9376 18.2988C68.7313 18.2988 69.9791 17.542 70.6801 16.0275H78.3332C77.9406 17.5702 77.2327 18.9581 76.2093 20.1922C75.1859 21.4263 73.9035 22.3942 72.362 23.0946C70.8205 23.796 69.0961 24.1462 67.1898 24.1462C64.8919 24.1462 62.8452 23.6565 61.0515 22.6742C59.2569 21.6929 57.8558 20.2906 56.8463 18.4675C55.8378 16.6448 55.3325 14.513 55.3325 12.0731C55.3325 9.63314 55.8299 7.50233 56.8256 5.67868C57.8203 3.85602 59.2154 2.45428 61.009 1.47198C62.8026 0.490659 64.8632 0 67.1898 0C69.461 0 71.479 0.477304 73.245 1.42993C75.0109 2.38405 76.3912 3.74375 77.3869 5.51051C78.3816 7.27728 78.8799 9.33884 78.8799 11.6947C78.8799 12.3674 78.8374 13.0687 78.7534 13.7978ZM71.5216 9.80131C71.5216 8.56773 71.1013 7.58642 70.2599 6.85686C69.4185 6.12779 68.3674 5.76326 67.1057 5.76326C65.9004 5.76326 64.884 6.11395 64.0574 6.81482C63.2308 7.51618 62.7186 8.51184 62.5228 9.80131H71.5216Z" fill="#FFF381"/>
<path d="M103.54 2.75491C105.18 4.53652 106 6.98288 106 10.096V23.8097H98.8521V11.0635C98.8521 9.49306 98.4447 8.27334 97.632 7.4038C96.8192 6.53476 95.7256 6.0995 94.3522 6.0995C92.9789 6.0995 91.8853 6.53476 91.0735 7.4038C90.2598 8.27334 89.8534 9.49306 89.8534 11.0635V23.8097H82.6641V0.336238H89.8534V3.44935C90.5821 2.41214 91.5629 1.59157 92.7969 0.988142C94.0299 0.3857 95.4181 0.0839844 96.9596 0.0839844C99.7064 0.0839844 101.9 0.974293 103.54 2.75491Z" fill="#FFF381"/>
</svg>
