<svg width="106" height="61" viewBox="0 0 106 61" fill="none" xmlns="http://www.w3.org/2000/svg">
<path d="M1.84616 10.7471C0.846157 11.4621 0.0351562 13.0371 0.0351562 14.2671V47.5781C0.0351562 48.8071 0.846157 50.3831 1.84616 51.0981L14.9172 60.4381C15.9172 61.1531 17.5382 61.1531 18.5392 60.4381L31.6102 51.0981C32.6102 50.3831 33.4212 48.8071 33.4212 47.5781V14.2671C33.4212 13.0371 32.6102 11.4621 31.6102 10.7471L18.5392 1.40712C17.5382 0.692115 15.9172 0.692115 14.9172 1.40712L1.84616 10.7471Z" fill="#FFF381"/>
<path d="M13.1104 39.2549H11.8094L11.1594 40.5639L11.8094 41.8729H13.1104L13.7604 40.5639L13.1104 39.2549Z" fill="#005E5E"/>
<path d="M10.5091 39.2549H9.20811L8.55811 40.5639L9.20811 41.8729H10.5091L11.1591 40.5639L10.5091 39.2549Z" fill="#005E5E"/>
<path d="M7.90779 39.2549H6.60679L5.95679 40.5639L6.60679 41.8729H7.90779L8.55779 40.5639L7.90779 39.2549Z" fill="#005E5E"/>
<path d="M22.2142 15.6949H20.9132L20.2632 17.0039L20.9132 18.3129H22.2142L22.8642 17.0039L22.2142 15.6949Z" fill="#005E5E"/>
<path d="M24.8155 15.6949H23.5145L22.8645 17.0039L23.5145 18.3129H24.8155L25.4655 17.0039L24.8155 15.6949Z" fill="#005E5E"/>
<path d="M22.2142 26.166H20.9132L20.2632 27.475L20.9132 28.784H22.2142L22.8642 27.475L22.2142 26.166Z" fill="#005E5E"/>
<path d="M24.8155 26.166H23.5145L22.8645 27.475L23.5145 28.784H24.8155L25.4655 27.475L24.8155 26.166Z" fill="#005E5E"/>
<path d="M22.2125 20.9305H20.9115L20.2615 22.2395L20.9115 23.5485H22.2125L22.8625 22.2395L22.2125 20.9305Z" fill="#005E5E"/>
<path d="M24.8155 20.9305H23.5145L22.8645 22.2395L23.5145 23.5485H24.8155L25.4655 22.2395L24.8155 20.9305Z" fill="#005E5E"/>
<path d="M22.2142 31.4016H20.9132L20.2632 32.7106L20.9132 34.0196H22.2142L22.8642 32.7106L22.2142 31.4016Z" fill="#005E5E"/>
<path d="M24.8155 31.4016H23.5145L22.8645 32.7106L23.5145 34.0196H24.8155L25.4655 32.7106L24.8155 31.4016Z" fill="#005E5E"/>
<path d="M22.2142 36.6371H20.9132L20.2632 37.9461L20.9132 39.2551H22.2142L22.8642 37.9461L22.2142 36.6371Z" fill="#005E5E"/>
<path d="M24.8155 36.6371H23.5145L22.8645 37.9461L23.5145 39.2551H24.8155L25.4655 37.9461L24.8155 36.6371Z" fill="#005E5E"/>
<path d="M22.2142 41.8727H20.9132L20.2632 43.1817L20.9132 44.4907H22.2142L22.8642 43.1817L22.2142 41.8727Z" fill="#005E5E"/>
<path d="M24.8155 41.8727H23.5145L22.8645 43.1817L23.5145 44.4907H24.8155L25.4655 43.1817L24.8155 41.8727Z" fill="#005E5E"/>
<path d="M9.20832 41.8727H7.90733L7.25732 43.1817L7.90733 44.4907H9.20832L9.85832 43.1817L9.20832 41.8727Z" fill="#005E5E"/>
<path d="M11.8096 41.8727H10.5086L9.85864 43.1817L10.5086 44.4907H11.8096L12.4596 43.1817L11.8096 41.8727Z" fill="#005E5E"/>
<path d="M23.515 13.0771H22.214L21.564 14.3861L22.214 15.6951H23.515L24.165 14.3861L23.515 13.0771Z" fill="#005E5E"/>
<path d="M20.9136 13.0771H19.6126L18.9626 14.3861L19.6126 15.6951H20.9136L21.5636 14.3861L20.9136 13.0771Z" fill="#005E5E"/>
<path d="M26.1163 13.0771H24.8153L24.1653 14.3861L24.8153 15.6951H26.1163L26.7663 14.3861L26.1163 13.0771Z" fill="#005E5E"/>
<path d="M23.514 18.3127H22.213L21.563 19.6217L22.213 20.9307H23.514L24.164 19.6217L23.514 18.3127Z" fill="#005E5E"/>
<path d="M20.9119 18.3127H19.6109L18.9609 19.6217L19.6109 20.9307H20.9119L21.5619 19.6217L20.9119 18.3127Z" fill="#005E5E"/>
<path d="M26.1163 18.3127H24.8153L24.1653 19.6217L24.8153 20.9307H26.1163L26.7663 19.6217L26.1163 18.3127Z" fill="#005E5E"/>
<path d="M23.515 28.7838H22.214L21.564 30.0928L22.214 31.4018H23.515L24.165 30.0928L23.515 28.7838Z" fill="#005E5E"/>
<path d="M20.9136 28.7838H19.6126L18.9626 30.0928L19.6126 31.4018H20.9136L21.5636 30.0928L20.9136 28.7838Z" fill="#005E5E"/>
<path d="M26.1163 28.7838H24.8153L24.1653 30.0928L24.8153 31.4018H26.1163L26.7663 30.0928L26.1163 28.7838Z" fill="#005E5E"/>
<path d="M23.515 23.5482H22.214L21.564 24.8572L22.214 26.1662H23.515L24.165 24.8572L23.515 23.5482Z" fill="#005E5E"/>
<path d="M20.9136 23.5482H19.6126L18.9626 24.8572L19.6126 26.1662H20.9136L21.5636 24.8572L20.9136 23.5482Z" fill="#005E5E"/>
<path d="M26.1163 23.5482H24.8153L24.1653 24.8572L24.8153 26.1662H26.1163L26.7663 24.8572L26.1163 23.5482Z" fill="#005E5E"/>
<path d="M23.515 34.0193H22.214L21.564 35.3283L22.214 36.6373H23.515L24.165 35.3283L23.515 34.0193Z" fill="#005E5E"/>
<path d="M20.9136 34.0193H19.6126L18.9626 35.3283L19.6126 36.6373H20.9136L21.5636 35.3283L20.9136 34.0193Z" fill="#005E5E"/>
<path d="M26.1163 34.0193H24.8153L24.1653 35.3283L24.8153 36.6373H26.1163L26.7663 35.3283L26.1163 34.0193Z" fill="#005E5E"/>
<path d="M23.515 39.2549H22.214L21.564 40.5639L22.214 41.8729H23.515L24.165 40.5639L23.515 39.2549Z" fill="#005E5E"/>
<path d="M20.9136 39.2549H19.6126L18.9626 40.5639L19.6126 41.8729H20.9136L21.5636 40.5639L20.9136 39.2549Z" fill="#005E5E"/>
<path d="M26.1163 39.2549H24.8153L24.1653 40.5639L24.8153 41.8729H26.1163L26.7663 40.5639L26.1163 39.2549Z" fill="#005E5E"/>
<path d="M13.1097 44.4904H11.8087L11.1587 45.7994L11.8087 47.1084H13.1097L13.7597 45.7994L13.1097 44.4904Z" fill="#005E5E"/>
<path d="M23.515 44.4904H22.214L21.564 45.7994L22.214 47.1084H23.515L24.165 45.7994L23.515 44.4904Z" fill="#005E5E"/>
<path d="M10.5084 44.4904H9.20737L8.55737 45.7994L9.20737 47.1084H10.5084L11.1584 45.7994L10.5084 44.4904Z" fill="#005E5E"/>
<path d="M20.9136 44.4904H19.6126L18.9626 45.7994L19.6126 47.1084H20.9136L21.5636 45.7994L20.9136 44.4904Z" fill="#005E5E"/>
<path d="M7.90705 44.4904H6.60605L5.95605 45.7994L6.60605 47.1084H7.90705L8.55705 45.7994L7.90705 44.4904Z" fill="#005E5E"/>
<path d="M15.711 44.4904H14.41L13.76 45.7994L14.41 47.1084H15.711L16.361 45.7994L15.711 44.4904Z" fill="#005E5E"/>
<path d="M26.1163 44.4904H24.8153L24.1653 45.7994L24.8153 47.1084H26.1163L26.7663 45.7994L26.1163 44.4904Z" fill="#005E5E"/>
<path d="M18.3123 44.4904H17.0113L16.3613 45.7994L17.0113 47.1084H18.3123L18.9623 45.7994L18.3123 44.4904Z" fill="#005E5E"/>
<path d="M17.0128 47.1082H15.7118L15.0618 48.4172L15.7118 49.7262H17.0128L17.6628 48.4172L17.0128 47.1082Z" fill="#005E5E"/>
<path d="M14.4102 47.1082H13.1092L12.4592 48.4172L13.1092 49.7262H14.4102L15.0602 48.4172L14.4102 47.1082Z" fill="#005E5E"/>
<path d="M11.8089 47.1082H10.5079L9.85791 48.4172L10.5079 49.7262H11.8089L12.4589 48.4172L11.8089 47.1082Z" fill="#005E5E"/>
<path d="M19.6153 47.1082H18.3143L17.6643 48.4172L18.3143 49.7262H19.6153L20.2653 48.4172L19.6153 47.1082Z" fill="#005E5E"/>
<path d="M37.9509 10.7471C36.9509 11.4621 36.1399 13.0371 36.1399 14.2671V47.5781C36.1399 48.8071 36.9509 50.3831 37.9509 51.0981L51.0219 60.4381C52.0219 61.1531 53.6429 61.1531 54.6439 60.4381L67.7149 51.0981C68.7149 50.3831 69.5259 48.8071 69.5259 47.5781V14.2671C69.5259 13.0371 68.7149 11.4621 67.7149 10.7471L54.6439 1.40712C53.6429 0.692115 52.0219 0.692115 51.0219 1.40712L37.9509 10.7471Z" fill="#FFF381"/>
<path d="M52.1837 15.6949H50.8827L50.2327 17.0039L50.8827 18.3129H52.1837L52.8337 17.0039L52.1837 15.6949Z" fill="#005E5E"/>
<path d="M54.785 15.6949H53.484L52.834 17.0039L53.484 18.3129H54.785L55.435 17.0039L54.785 15.6949Z" fill="#005E5E"/>
<path d="M52.1837 26.166H50.8827L50.2327 27.475L50.8827 28.784H52.1837L52.8337 27.475L52.1837 26.166Z" fill="#005E5E"/>
<path d="M54.785 26.166H53.484L52.834 27.475L53.484 28.784H54.785L55.435 27.475L54.785 26.166Z" fill="#005E5E"/>
<path d="M52.182 20.9305H50.881L50.231 22.2395L50.881 23.5485H52.182L52.832 22.2395L52.182 20.9305Z" fill="#005E5E"/>
<path d="M54.785 20.9305H53.484L52.834 22.2395L53.484 23.5485H54.785L55.435 22.2395L54.785 20.9305Z" fill="#005E5E"/>
<path d="M52.1837 31.4016H50.8827L50.2327 32.7106L50.8827 34.0196H52.1837L52.8337 32.7106L52.1837 31.4016Z" fill="#005E5E"/>
<path d="M54.785 31.4016H53.484L52.834 32.7106L53.484 34.0196H54.785L55.435 32.7106L54.785 31.4016Z" fill="#005E5E"/>
<path d="M52.1837 36.6371H50.8827L50.2327 37.9461L50.8827 39.2551H52.1837L52.8337 37.9461L52.1837 36.6371Z" fill="#005E5E"/>
<path d="M54.785 36.6371H53.484L52.834 37.9461L53.484 39.2551H54.785L55.435 37.9461L54.785 36.6371Z" fill="#005E5E"/>
<path d="M52.1837 41.8727H50.8827L50.2327 43.1817L50.8827 44.4907H52.1837L52.8337 43.1817L52.1837 41.8727Z" fill="#005E5E"/>
<path d="M54.785 41.8727H53.484L52.834 43.1817L53.484 44.4907H54.785L55.435 43.1817L54.785 41.8727Z" fill="#005E5E"/>
<path d="M53.4842 13.0771H52.1832L51.5332 14.3861L52.1832 15.6951H53.4842L54.1342 14.3861L53.4842 13.0771Z" fill="#005E5E"/>
<path d="M50.8829 13.0771H49.5819L48.9319 14.3861L49.5819 15.6951H50.8829L51.5329 14.3861L50.8829 13.0771Z" fill="#005E5E"/>
<path d="M56.0855 13.0771H54.7845L54.1345 14.3861L54.7845 15.6951H56.0855L56.7355 14.3861L56.0855 13.0771Z" fill="#005E5E"/>
<path d="M53.4835 18.3127H52.1825L51.5325 19.6217L52.1825 20.9307H53.4835L54.1335 19.6217L53.4835 18.3127Z" fill="#005E5E"/>
<path d="M50.8812 18.3127H49.5802L48.9302 19.6217L49.5802 20.9307H50.8812L51.5312 19.6217L50.8812 18.3127Z" fill="#005E5E"/>
<path d="M56.0855 18.3127H54.7845L54.1345 19.6217L54.7845 20.9307H56.0855L56.7355 19.6217L56.0855 18.3127Z" fill="#005E5E"/>
<path d="M53.4842 28.7838H52.1832L51.5332 30.0928L52.1832 31.4018H53.4842L54.1342 30.0928L53.4842 28.7838Z" fill="#005E5E"/>
<path d="M50.8829 28.7838H49.5819L48.9319 30.0928L49.5819 31.4018H50.8829L51.5329 30.0928L50.8829 28.7838Z" fill="#005E5E"/>
<path d="M56.0855 28.7838H54.7845L54.1345 30.0928L54.7845 31.4018H56.0855L56.7355 30.0928L56.0855 28.7838Z" fill="#005E5E"/>
<path d="M53.4842 23.5482H52.1832L51.5332 24.8572L52.1832 26.1662H53.4842L54.1342 24.8572L53.4842 23.5482Z" fill="#005E5E"/>
<path d="M50.8829 23.5482H49.5819L48.9319 24.8572L49.5819 26.1662H50.8829L51.5329 24.8572L50.8829 23.5482Z" fill="#005E5E"/>
<path d="M56.0855 23.5482H54.7845L54.1345 24.8572L54.7845 26.1662H56.0855L56.7355 24.8572L56.0855 23.5482Z" fill="#005E5E"/>
<path d="M53.4842 34.0193H52.1832L51.5332 35.3283L52.1832 36.6373H53.4842L54.1342 35.3283L53.4842 34.0193Z" fill="#005E5E"/>
<path d="M50.8829 34.0193H49.5819L48.9319 35.3283L49.5819 36.6373H50.8829L51.5329 35.3283L50.8829 34.0193Z" fill="#005E5E"/>
<path d="M56.0855 34.0193H54.7845L54.1345 35.3283L54.7845 36.6373H56.0855L56.7355 35.3283L56.0855 34.0193Z" fill="#005E5E"/>
<path d="M53.4842 39.2549H52.1832L51.5332 40.5639L52.1832 41.8729H53.4842L54.1342 40.5639L53.4842 39.2549Z" fill="#005E5E"/>
<path d="M50.8829 39.2549H49.5819L48.9319 40.5639L49.5819 41.8729H50.8829L51.5329 40.5639L50.8829 39.2549Z" fill="#005E5E"/>
<path d="M56.0855 39.2549H54.7845L54.1345 40.5639L54.7845 41.8729H56.0855L56.7355 40.5639L56.0855 39.2549Z" fill="#005E5E"/>
<path d="M53.4842 44.4904H52.1832L51.5332 45.7994L52.1832 47.1084H53.4842L54.1342 45.7994L53.4842 44.4904Z" fill="#005E5E"/>
<path d="M50.8829 44.4904H49.5819L48.9319 45.7994L49.5819 47.1084H50.8829L51.5329 45.7994L50.8829 44.4904Z" fill="#005E5E"/>
<path d="M56.0855 44.4904H54.7845L54.1345 45.7994L54.7845 47.1084H56.0855L56.7355 45.7994L56.0855 44.4904Z" fill="#005E5E"/>
<path d="M74.0559 10.7471C73.0559 11.4621 72.2449 13.0371 72.2449 14.2671V47.5781C72.2449 48.8071 73.0559 50.3831 74.0559 51.0981L87.1269 60.4381C88.1269 61.1531 89.7479 61.1531 90.7489 60.4381L103.82 51.0981C104.82 50.3831 105.631 48.8071 105.631 47.5781V14.2671C105.631 13.0371 104.82 11.4621 103.82 10.7471L90.7489 1.40712C89.7479 0.692115 88.1269 0.692115 87.1269 1.40712L74.0559 10.7471Z" fill="#FFF381"/>
<path d="M88.2884 15.6949H86.9874L86.3374 17.0039L86.9874 18.3129H88.2884L88.9384 17.0039L88.2884 15.6949Z" fill="#005E5E"/>
<path d="M90.8897 15.6949H89.5887L88.9387 17.0039L89.5887 18.3129H90.8897L91.5397 17.0039L90.8897 15.6949Z" fill="#005E5E"/>
<path d="M88.2884 26.166H86.9874L86.3374 27.475L86.9874 28.784H88.2884L88.9384 27.475L88.2884 26.166Z" fill="#005E5E"/>
<path d="M90.8897 26.166H89.5887L88.9387 27.475L89.5887 28.784H90.8897L91.5397 27.475L90.8897 26.166Z" fill="#005E5E"/>
<path d="M88.2869 20.9305H86.9859L86.3359 22.2395L86.9859 23.5485H88.2869L88.9369 22.2395L88.2869 20.9305Z" fill="#005E5E"/>
<path d="M90.8897 20.9305H89.5887L88.9387 22.2395L89.5887 23.5485H90.8897L91.5397 22.2395L90.8897 20.9305Z" fill="#005E5E"/>
<path d="M88.2884 31.4016H86.9874L86.3374 32.7106L86.9874 34.0196H88.2884L88.9384 32.7106L88.2884 31.4016Z" fill="#005E5E"/>
<path d="M90.8897 31.4016H89.5887L88.9387 32.7106L89.5887 34.0196H90.8897L91.5397 32.7106L90.8897 31.4016Z" fill="#005E5E"/>
<path d="M88.2884 36.6371H86.9874L86.3374 37.9461L86.9874 39.2551H88.2884L88.9384 37.9461L88.2884 36.6371Z" fill="#005E5E"/>
<path d="M90.8897 36.6371H89.5887L88.9387 37.9461L89.5887 39.2551H90.8897L91.5397 37.9461L90.8897 36.6371Z" fill="#005E5E"/>
<path d="M88.2884 41.8727H86.9874L86.3374 43.1817L86.9874 44.4907H88.2884L88.9384 43.1817L88.2884 41.8727Z" fill="#005E5E"/>
<path d="M90.8897 41.8727H89.5887L88.9387 43.1817L89.5887 44.4907H90.8897L91.5397 43.1817L90.8897 41.8727Z" fill="#005E5E"/>
<path d="M89.5892 13.0771H88.2882L87.6382 14.3861L88.2882 15.6951H89.5892L90.2392 14.3861L89.5892 13.0771Z" fill="#005E5E"/>
<path d="M86.9879 13.0771H85.6869L85.0369 14.3861L85.6869 15.6951H86.9879L87.6379 14.3861L86.9879 13.0771Z" fill="#005E5E"/>
<path d="M92.1905 13.0771H90.8895L90.2395 14.3861L90.8895 15.6951H92.1905L92.8405 14.3861L92.1905 13.0771Z" fill="#005E5E"/>
<path d="M89.5882 18.3127H88.2872L87.6372 19.6217L88.2872 20.9307H89.5882L90.2382 19.6217L89.5882 18.3127Z" fill="#005E5E"/>
<path d="M86.9862 18.3127H85.6852L85.0352 19.6217L85.6852 20.9307H86.9862L87.6362 19.6217L86.9862 18.3127Z" fill="#005E5E"/>
<path d="M92.1905 18.3127H90.8895L90.2395 19.6217L90.8895 20.9307H92.1905L92.8405 19.6217L92.1905 18.3127Z" fill="#005E5E"/>
<path d="M89.5892 28.7838H88.2882L87.6382 30.0928L88.2882 31.4018H89.5892L90.2392 30.0928L89.5892 28.7838Z" fill="#005E5E"/>
<path d="M86.9879 28.7838H85.6869L85.0369 30.0928L85.6869 31.4018H86.9879L87.6379 30.0928L86.9879 28.7838Z" fill="#005E5E"/>
<path d="M92.1905 28.7838H90.8895L90.2395 30.0928L90.8895 31.4018H92.1905L92.8405 30.0928L92.1905 28.7838Z" fill="#005E5E"/>
<path d="M89.5892 23.5482H88.2882L87.6382 24.8572L88.2882 26.1662H89.5892L90.2392 24.8572L89.5892 23.5482Z" fill="#005E5E"/>
<path d="M86.9879 23.5482H85.6869L85.0369 24.8572L85.6869 26.1662H86.9879L87.6379 24.8572L86.9879 23.5482Z" fill="#005E5E"/>
<path d="M92.1905 23.5482H90.8895L90.2395 24.8572L90.8895 26.1662H92.1905L92.8405 24.8572L92.1905 23.5482Z" fill="#005E5E"/>
<path d="M89.5892 34.0193H88.2882L87.6382 35.3283L88.2882 36.6373H89.5892L90.2392 35.3283L89.5892 34.0193Z" fill="#005E5E"/>
<path d="M86.9879 34.0193H85.6869L85.0369 35.3283L85.6869 36.6373H86.9879L87.6379 35.3283L86.9879 34.0193Z" fill="#005E5E"/>
<path d="M92.1905 34.0193H90.8895L90.2395 35.3283L90.8895 36.6373H92.1905L92.8405 35.3283L92.1905 34.0193Z" fill="#005E5E"/>
<path d="M89.5892 39.2549H88.2882L87.6382 40.5639L88.2882 41.8729H89.5892L90.2392 40.5639L89.5892 39.2549Z" fill="#005E5E"/>
<path d="M86.9879 39.2549H85.6869L85.0369 40.5639L85.6869 41.8729H86.9879L87.6379 40.5639L86.9879 39.2549Z" fill="#005E5E"/>
<path d="M92.1905 39.2549H90.8895L90.2395 40.5639L90.8895 41.8729H92.1905L92.8405 40.5639L92.1905 39.2549Z" fill="#005E5E"/>
<path d="M89.5892 44.4904H88.2882L87.6382 45.7994L88.2882 47.1084H89.5892L90.2392 45.7994L89.5892 44.4904Z" fill="#005E5E"/>
<path d="M86.9879 44.4904H85.6869L85.0369 45.7994L85.6869 47.1084H86.9879L87.6379 45.7994L86.9879 44.4904Z" fill="#005E5E"/>
<path d="M92.1905 44.4904H90.8895L90.2395 45.7994L90.8895 47.1084H92.1905L92.8405 45.7994L92.1905 44.4904Z" fill="#005E5E"/>
</svg>
