<?xml version="1.0" encoding="UTF-8"?>
<svg id="Layer_1" xmlns="http://www.w3.org/2000/svg" version="1.1" viewBox="0 0 264.1914272 219.6711117">
  <!-- Generator: Adobe Illustrator 29.4.0, SVG Export Plug-In . SVG Version: 2.1.0 Build 152)  -->
  <defs>
    <style>
      .st0 {
        fill: #fff;
      }
    </style>
  </defs>
  <g>
    <path class="st0" d="M218.9709537,21.3868019c-2.9520111,0-5.6090088.5770111-7.9700012,1.7310028-2.3619995,1.154007-4.2400055,2.723999-5.6350098,4.7089996v-5.9570007h-13.7649994v44.9190063h13.7649994v-24.3910065c0-3.0050049.7770081-5.3399963,2.3350067-7.0039978,1.5549927-1.6629944,3.6490021-2.4960022,6.2789917-2.4960022,2.628006,0,4.7210083.8330078,6.279007,2.4960022,1.5549927,1.6640015,2.3339996,3.9989929,2.3339996,7.0039978v24.3910065h13.6849976v-26.2429962c0-5.9570007-1.5699921-10.6390076-4.7089996-14.0469971-3.1399994-3.4080048-7.3390045-5.1120148-12.5979919-5.1120148M150.3849399,39.9818031c.375-2.4669952,1.3539963-4.3730011,2.9379959-5.7149963,1.5820084-1.3410034,3.5280075-2.0120087,5.8360062-2.0120087,2.4149933,0,4.4279938.6980133,6.0379944,2.0930176,1.6100006,1.3959961,2.4150085,3.2739868,2.4150085,5.6339874h-17.227005ZM181.6989505,43.6048042c0-4.5079956-.9530029-8.4519958-2.8570099-11.8329926-1.9059906-3.3809967-4.548996-5.9840088-7.9299927-7.8090057-3.381012-1.8240051-7.2450104-2.7369995-11.5920105-2.7369995-4.4550018,0-8.3990021.9400024-11.8330002,2.8179932-3.4349976,1.8790131-6.1059952,4.5620117-8.0100021,8.0500031-1.9059982,3.4889984-2.8579941,7.5670013-2.8579941,12.2350006,0,4.6699982.9659958,8.7490082,2.897995,12.2369995,1.9319992,3.4889984,4.6150055,6.1719971,8.0500031,8.0490112,3.4339981,1.8799896,7.3519974,2.8179932,11.7529984,2.8179932,3.6490021,0,6.9500122-.6699982,9.9020081-2.0119934,2.951004-1.3410034,5.4059906-3.1930084,7.3659973-5.5550079,1.9580078-2.3609924,3.3130035-5.0169983,4.0650024-7.9689941h-14.651001c-1.3419952,2.897995-3.7310028,4.3470001-7.1650085,4.3470001-2.3079987,0-4.2539978-.7380066-5.8359985-2.2140045-1.5839996-1.4759979-2.4830017-3.6089935-2.6969986-6.3999939h31.1540146c.1609955-1.3950043.2409973-2.7370148.2409973-4.0250092M115.4489352,44.2488014c0,3.4350128-.9659958,6.1580048-2.897995,8.1710052-1.9319992,2.0119934-4.2669983,3.0180054-7.0039978,3.0180054s-5.0579987-.9920044-6.9630051-2.9779968c-1.9049988-1.9850159-2.8579941-4.6950073-2.8579941-8.131012,0-3.4329987.9529953-6.1439972,2.8579941-8.1299896,1.9050064-1.9850006,4.2260056-2.9780121,6.9630051-2.9780121,2.7900009,0,5.1389999.9790039,7.0439987,2.9380035s2.8579941,4.6560059,2.8579941,8.0899963M95.8069369,28.2298042v-6.3600006h-13.7659988v66.3320007h13.7659988v-27.6920013c1.3410034,2.0400085,3.2060013,3.7030029,5.5950012,4.9909973,2.387001,1.2880096,5.1380005,1.9320068,8.2509995,1.9320068,3.7030029,0,7.0559998-.9519958,10.0620041-2.8580017,3.0049973-1.9039917,5.3799973-4.6150055,7.125-8.1300049,1.7429962-3.5149994,2.6159973-7.5799866,2.6159973-12.1959991,0-4.6149902-.8730011-8.6660004-2.6159973-12.1549988-1.7450027-3.4879913-4.1200027-6.17099-7.125-8.0500031-3.0060043-1.8779907-6.3590012-2.8179932-10.0620041-2.8179932-3.1669998,0-5.9309998.6439972-8.2919998,1.9320068-2.3619995,1.2879944-4.2129974,2.9789886-5.5540009,5.071991M48.5539405,55.5188057c-2.6299992,0-4.8169994-.9660034-6.5609989-2.897995-1.7440014-1.9320068-2.6160011-4.6950073-2.6160011-8.2920074,0-3.647995.8850002-6.4259949,2.6560001-8.3309937s3.9979992-2.8580017,6.6819992-2.8580017c2.6289997,0,4.8430004.9660034,6.6410007,2.897995,1.7980003,1.9320068,2.6969986,4.6970062,2.6969986,8.2910004,0,3.5970001-.9259987,6.3600006-2.7769985,8.2920074-1.8519993,1.9319916-4.0930004,2.897995-6.7220001,2.897995M48.5539405,67.4328071c4.3999996,0,8.3850002-.9380035,11.9540005-2.8179932,3.5690002-1.8770142,6.3860016-4.5740051,8.4529991-8.0900116,2.0649986-3.5139923,3.0990028-7.5789948,3.0990028-12.1959991,0-4.6139984-1.0200043-8.6799927-3.0590019-12.1949921-2.0400009-3.5149994-4.8300018-6.2109985-8.3720016-8.0900116-3.5419998-1.8779907-7.5139999-2.8179932-11.9139996-2.8179932-4.4009991,0-8.3719997.9400024-11.9139996,2.8179932-3.5419998,1.8790131-6.3330002,4.5750122-8.3719997,8.0900116-2.0400009,3.5149994-3.059,7.5809937-3.059,12.1949921,0,4.6699982,1.0060005,8.7490082,3.0189991,12.2369995,2.012001,3.4889984,4.776001,6.1719971,8.2910013,8.0490112,3.5149994,1.8799896,7.4730005,2.8179932,11.8739996,2.8179932"/>
    <path class="st0" d="M59.7392578,200.4916992c-1.487793,0-2.9750977-.4140625-4.1347656-1.2416992l-25.6430664-18.3256836c-2.2270508-1.5908203-3.9716797-4.9819336-3.9716797-7.7197266v-65.3525391c0-2.7373047,1.7446289-6.1279297,3.9716797-7.71875l25.6425781-18.3237305c2.3188477-1.6577148,5.9501953-1.6582031,8.269043-.0014648l25.6450195,18.3251953c2.2270508,1.5908203,3.9716797,4.9814453,3.9716797,7.71875v65.3525391c0,2.737793-1.7446289,6.1289062-3.972168,7.7197266l-25.6445312,18.3251953c-1.1586914.828125-2.6464844,1.2421875-4.1337891,1.2421875ZM59.7402344,82.5727539c-1.0834961,0-2.1674805.2875977-2.9731445.8637695l-25.6430664,18.3237305c-1.6987305,1.2138672-3.1342773,4.003418-3.1342773,6.0917969v65.3525391c0,2.0888672,1.4355469,4.8789062,3.1342773,6.0927734l25.6430664,18.3251953c1.6123047,1.1513672,4.3344727,1.1503906,5.9428711,0l25.6450195-18.3251953c1.6992188-1.2138672,3.1347656-4.0039062,3.1347656-6.0927734v-65.3525391c0-2.0883789-1.4355469-4.8779297-3.1342773-6.0917969l-25.6455078-18.3251953c-.8046875-.574707-1.887207-.8623047-2.9697266-.8623047Z"/>
  </g>
  <polygon class="st0" points="52.6420409 156.8760101 50.0900409 156.8760101 48.8140399 159.4440109 50.0900409 162.0120117 52.6420409 162.0120117 53.91804 159.4440109 52.6420409 156.8760101"/>
  <polygon class="st0" points="47.5385406 156.8760101 44.9865405 156.8760101 43.7105395 159.4440109 44.9865405 162.0120117 47.5385406 162.0120117 48.8145396 159.4440109 47.5385406 156.8760101"/>
  <polygon class="st0" points="42.4350402 156.8760101 39.8830401 156.8760101 38.6070401 159.4440109 39.8830401 162.0120117 42.4350402 162.0120117 43.7110393 159.4440109 42.4350402 156.8760101"/>
  <polygon class="st0" points="70.5027415 110.6540138 67.9507434 110.6540138 66.6747424 113.2220146 67.9507434 115.7900154 70.5027415 115.7900154 71.7787425 113.2220146 70.5027415 110.6540138"/>
  <polygon class="st0" points="75.6062419 110.6540138 73.0542438 110.6540138 71.7782428 113.2220146 73.0542438 115.7900154 75.6062419 115.7900154 76.8822429 113.2220146 75.6062419 110.6540138"/>
  <polygon class="st0" points="70.5027415 131.1971123 67.9507434 131.1971123 66.6747424 133.7651131 67.9507434 136.3331139 70.5027415 136.3331139 71.7787425 133.7651131 70.5027415 131.1971123"/>
  <polygon class="st0" points="75.6062419 131.1971123 73.0542438 131.1971123 71.7782428 133.7651131 73.0542438 136.3331139 75.6062419 136.3331139 76.8822429 133.7651131 75.6062419 131.1971123"/>
  <polygon class="st0" points="70.4996402 120.9255134 67.9476382 120.9255134 66.6716411 123.4935142 67.9476382 126.061515 70.4996402 126.061515 71.7756412 123.4935142 70.4996402 120.9255134"/>
  <polygon class="st0" points="75.6062419 120.9255134 73.0542438 120.9255134 71.7782428 123.4935142 73.0542438 126.061515 75.6062419 126.061515 76.8822429 123.4935142 75.6062419 120.9255134"/>
  <polygon class="st0" points="70.5027415 141.4686119 67.9507434 141.4686119 66.6747424 144.0366127 67.9507434 146.6046135 70.5027415 146.6046135 71.7787425 144.0366127 70.5027415 141.4686119"/>
  <polygon class="st0" points="75.6062419 141.4686119 73.0542438 141.4686119 71.7782428 144.0366127 73.0542438 146.6046135 75.6062419 146.6046135 76.8822429 144.0366127 75.6062419 141.4686119"/>
  <polygon class="st0" points="70.5027415 151.7402107 67.9507434 151.7402107 66.6747424 154.3082115 67.9507434 156.8762123 70.5027415 156.8762123 71.7787425 154.3082115 70.5027415 151.7402107"/>
  <polygon class="st0" points="75.6062419 151.7402107 73.0542438 151.7402107 71.7782428 154.3082115 73.0542438 156.8762123 75.6062419 156.8762123 76.8822429 154.3082115 75.6062419 151.7402107"/>
  <polygon class="st0" points="70.5027415 162.0117103 67.9507434 162.0117103 66.6747424 164.5797111 67.9507434 167.1477119 70.5027415 167.1477119 71.7787425 164.5797111 70.5027415 162.0117103"/>
  <polygon class="st0" points="75.6062419 162.0117103 73.0542438 162.0117103 71.7782428 164.5797111 73.0542438 167.1477119 75.6062419 167.1477119 76.8822429 164.5797111 75.6062419 162.0117103"/>
  <polygon class="st0" points="44.98684 162.0117103 42.4348399 162.0117103 41.1588399 164.5797111 42.4348399 167.1477119 44.98684 167.1477119 46.262839 164.5797111 44.98684 162.0117103"/>
  <polygon class="st0" points="50.0902411 162.0117103 47.5382411 162.0117103 46.2622401 164.5797111 47.5382411 167.1477119 50.0902411 167.1477119 51.3662402 164.5797111 50.0902411 162.0117103"/>
  <polygon class="st0" points="73.0545413 105.5182106 70.5025393 105.5182106 69.2265422 108.0862114 70.5025393 110.6542122 73.0545413 110.6542122 74.3305423 108.0862114 73.0545413 105.5182106"/>
  <polygon class="st0" points="67.9510409 105.5182106 65.399039 105.5182106 64.1230418 108.0862114 65.399039 110.6542122 67.9510409 110.6542122 69.2270419 108.0862114 67.9510409 105.5182106"/>
  <polygon class="st0" points="78.1579387 105.5182106 75.6059405 105.5182106 74.3299396 108.0862114 75.6059405 110.6542122 78.1579387 110.6542122 79.4339396 108.0862114 78.1579387 105.5182106"/>
  <polygon class="st0" points="73.0529391 115.7898094 70.5009372 115.7898094 69.22494 118.3578102 70.5009372 120.925811 73.0529391 120.925811 74.3289401 118.3578102 73.0529391 115.7898094"/>
  <polygon class="st0" points="67.9478404 115.7898094 65.3958423 115.7898094 64.1198413 118.3578102 65.3958423 120.925811 67.9478404 120.925811 69.2238414 118.3578102 67.9478404 115.7898094"/>
  <polygon class="st0" points="78.1579387 115.7898094 75.6059405 115.7898094 74.3299396 118.3578102 75.6059405 120.925811 78.1579387 120.925811 79.4339396 118.3578102 78.1579387 115.7898094"/>
  <polygon class="st0" points="73.0545413 136.3329079 70.5025393 136.3329079 69.2265422 138.9009087 70.5025393 141.4689094 73.0545413 141.4689094 74.3305423 138.9009087 73.0545413 136.3329079"/>
  <polygon class="st0" points="67.9510409 136.3329079 65.399039 136.3329079 64.1230418 138.9009087 65.399039 141.4689094 67.9510409 141.4689094 69.2270419 138.9009087 67.9510409 136.3329079"/>
  <polygon class="st0" points="78.1579387 136.3329079 75.6059405 136.3329079 74.3299396 138.9009087 75.6059405 141.4689094 78.1579387 141.4689094 79.4339396 138.9009087 78.1579387 136.3329079"/>
  <polygon class="st0" points="73.0545413 126.061309 70.5025393 126.061309 69.2265422 128.6293098 70.5025393 131.1973106 73.0545413 131.1973106 74.3305423 128.6293098 73.0545413 126.061309"/>
  <polygon class="st0" points="67.9510409 126.061309 65.399039 126.061309 64.1230418 128.6293098 65.399039 131.1973106 67.9510409 131.1973106 69.2270419 128.6293098 67.9510409 126.061309"/>
  <polygon class="st0" points="78.1579387 126.061309 75.6059405 126.061309 74.3299396 128.6293098 75.6059405 131.1973106 78.1579387 131.1973106 79.4339396 128.6293098 78.1579387 126.061309"/>
  <polygon class="st0" points="73.0545413 146.6044113 70.5025393 146.6044113 69.2265422 149.1724121 70.5025393 151.7404129 73.0545413 151.7404129 74.3305423 149.1724121 73.0545413 146.6044113"/>
  <polygon class="st0" points="67.9510409 146.6044113 65.399039 146.6044113 64.1230418 149.1724121 65.399039 151.7404129 67.9510409 151.7404129 69.2270419 149.1724121 67.9510409 146.6044113"/>
  <polygon class="st0" points="78.1579387 146.6044113 75.6059405 146.6044113 74.3299396 149.1724121 75.6059405 151.7404129 78.1579387 151.7404129 79.4339396 149.1724121 78.1579387 146.6044113"/>
  <polygon class="st0" points="73.0545413 156.8760101 70.5025393 156.8760101 69.2265422 159.4440109 70.5025393 162.0120117 73.0545413 162.0120117 74.3305423 159.4440109 73.0545413 156.8760101"/>
  <polygon class="st0" points="67.9510409 156.8760101 65.399039 156.8760101 64.1230418 159.4440109 65.399039 162.0120117 67.9510409 162.0120117 69.2270419 159.4440109 67.9510409 156.8760101"/>
  <polygon class="st0" points="78.1579387 156.8760101 75.6059405 156.8760101 74.3299396 159.4440109 75.6059405 162.0120117 78.1579387 162.0120117 79.4339396 159.4440109 78.1579387 156.8760101"/>
  <polygon class="st0" points="52.6406409 167.1475098 50.0886409 167.1475098 48.8126399 169.7155105 50.0886409 172.2835094 52.6406409 172.2835094 53.91664 169.7155105 52.6406409 167.1475098"/>
  <polygon class="st0" points="73.0545413 167.1475098 70.5025393 167.1475098 69.2265422 169.7155105 70.5025393 172.2835094 73.0545413 172.2835094 74.3305423 169.7155105 73.0545413 167.1475098"/>
  <polygon class="st0" points="47.5371406 167.1475098 44.9851405 167.1475098 43.7091395 169.7155105 44.9851405 172.2835094 47.5371406 172.2835094 48.8131396 169.7155105 47.5371406 167.1475098"/>
  <polygon class="st0" points="67.9510409 167.1475098 65.399039 167.1475098 64.1230418 169.7155105 65.399039 172.2835094 67.9510409 172.2835094 69.2270419 169.7155105 67.9510409 167.1475098"/>
  <polygon class="st0" points="42.4336402 167.1475098 39.8816401 167.1475098 38.6056401 169.7155105 39.8816401 172.2835094 42.4336402 172.2835094 43.7096393 169.7155105 42.4336402 167.1475098"/>
  <polygon class="st0" points="57.7440402 167.1475098 55.1920402 167.1475098 53.9160411 169.7155105 55.1920402 172.2835094 57.7440402 172.2835094 59.0200412 169.7155105 57.7440402 167.1475098"/>
  <polygon class="st0" points="78.1579387 167.1475098 75.6059405 167.1475098 74.3299396 169.7155105 75.6059405 172.2835094 78.1579387 172.2835094 79.4339396 169.7155105 78.1579387 167.1475098"/>
  <polygon class="st0" points="62.8475406 167.1475098 60.2955386 167.1475098 59.0195415 169.7155105 60.2955386 172.2835094 62.8475406 172.2835094 64.1235415 169.7155105 62.8475406 167.1475098"/>
  <polygon class="st0" points="60.2981402 172.2833111 57.7461383 172.2833111 56.4701411 174.8513119 57.7461383 177.4193108 60.2981402 177.4193108 61.5741412 174.8513119 60.2981402 172.2833111"/>
  <polygon class="st0" points="55.1923396 172.2833111 52.6403396 172.2833111 51.3643405 174.8513119 52.6403396 177.4193108 55.1923396 177.4193108 56.4683406 174.8513119 55.1923396 172.2833111"/>
  <polygon class="st0" points="50.0888412 172.2833111 47.5368411 172.2833111 46.2608401 174.8513119 47.5368411 177.4193108 50.0888412 177.4193108 51.3648402 174.8513119 50.0888412 172.2833111"/>
  <polygon class="st0" points="65.40404 172.2833111 62.8520419 172.2833111 61.5760409 174.8513119 62.8520419 177.4193108 65.40404 177.4193108 66.680041 174.8513119 65.40404 172.2833111"/>
  <path class="st0" d="M131.2817383,200.4916992c-1.487793,0-2.9755859-.4140625-4.1347656-1.2416992l-25.6430664-18.3256836c-2.2270508-1.5908203-3.9716797-4.9819336-3.9716797-7.7197266v-65.3525391c0-2.7373047,1.7446289-6.1279297,3.9716797-7.71875l25.6425781-18.3237305c2.3188477-1.6577148,5.9511719-1.6582031,8.269043-.0014648l25.6450195,18.3251953c2.2270508,1.5908203,3.9716797,4.9814453,3.9716797,7.71875v65.3525391c0,2.737793-1.7446289,6.1289062-3.972168,7.7197266l-25.644043,18.3251953c-1.1591797.828125-2.6469727,1.2421875-4.1342773,1.2421875ZM131.2827148,82.5727539c-1.0834961,0-2.1674805.2880859-2.9731445.8637695l-25.6430664,18.3237305c-1.6987305,1.2138672-3.1342773,4.003418-3.1342773,6.0917969v65.3525391c0,2.0888672,1.4355469,4.8789062,3.1342773,6.0927734l25.6430664,18.3251953c1.6113281,1.1513672,4.3334961,1.1503906,5.9438477,0l25.644043-18.3251953c1.6992188-1.2138672,3.1347656-4.0039062,3.1347656-6.0927734v-65.3525391c0-2.0883789-1.4355469-4.8779297-3.1342773-6.0917969l-25.6450195-18.3251953c-.8046875-.574707-1.8876953-.8623047-2.9702148-.8623047Z"/>
  <polygon class="st0" points="130.0081393 110.6540138 127.4561374 110.6540138 126.1801364 113.2220146 127.4561374 115.7900154 130.0081393 115.7900154 131.2841403 113.2220146 130.0081393 110.6540138"/>
  <polygon class="st0" points="135.1116397 110.6540138 132.5596377 110.6540138 131.2836368 113.2220146 132.5596377 115.7900154 135.1116397 115.7900154 136.3876407 113.2220146 135.1116397 110.6540138"/>
  <polygon class="st0" points="130.0081393 131.1971123 127.4561374 131.1971123 126.1801364 133.7651131 127.4561374 136.3331139 130.0081393 136.3331139 131.2841403 133.7651131 130.0081393 131.1971123"/>
  <polygon class="st0" points="135.1116397 131.1971123 132.5596377 131.1971123 131.2836368 133.7651131 132.5596377 136.3331139 135.1116397 136.3331139 136.3876407 133.7651131 135.1116397 131.1971123"/>
  <polygon class="st0" points="130.0049426 120.9255134 127.4529407 120.9255134 126.1769397 123.4935142 127.4529407 126.061515 130.0049426 126.061515 131.2809436 123.4935142 130.0049426 120.9255134"/>
  <polygon class="st0" points="135.1116397 120.9255134 132.5596377 120.9255134 131.2836368 123.4935142 132.5596377 126.061515 135.1116397 126.061515 136.3876407 123.4935142 135.1116397 120.9255134"/>
  <polygon class="st0" points="130.0081393 141.4686119 127.4561374 141.4686119 126.1801364 144.0366127 127.4561374 146.6046135 130.0081393 146.6046135 131.2841403 144.0366127 130.0081393 141.4686119"/>
  <polygon class="st0" points="135.1116397 141.4686119 132.5596377 141.4686119 131.2836368 144.0366127 132.5596377 146.6046135 135.1116397 146.6046135 136.3876407 144.0366127 135.1116397 141.4686119"/>
  <polygon class="st0" points="130.0081393 151.7402107 127.4561374 151.7402107 126.1801364 154.3082115 127.4561374 156.8762123 130.0081393 156.8762123 131.2841403 154.3082115 130.0081393 151.7402107"/>
  <polygon class="st0" points="135.1116397 151.7402107 132.5596377 151.7402107 131.2836368 154.3082115 132.5596377 156.8762123 135.1116397 156.8762123 136.3876407 154.3082115 135.1116397 151.7402107"/>
  <polygon class="st0" points="130.0081393 162.0117103 127.4561374 162.0117103 126.1801364 164.5797111 127.4561374 167.1477119 130.0081393 167.1477119 131.2841403 164.5797111 130.0081393 162.0117103"/>
  <polygon class="st0" points="135.1116397 162.0117103 132.5596377 162.0117103 131.2836368 164.5797111 132.5596377 167.1477119 135.1116397 167.1477119 136.3876407 164.5797111 135.1116397 162.0117103"/>
  <polygon class="st0" points="132.5598437 105.5182106 130.0078418 105.5182106 128.7318408 108.0862114 130.0078418 110.6542122 132.5598437 110.6542122 133.8358447 108.0862114 132.5598437 105.5182106"/>
  <polygon class="st0" points="127.4563434 105.5182106 124.9043414 105.5182106 123.6283404 108.0862114 124.9043414 110.6542122 127.4563434 110.6542122 128.7323443 108.0862114 127.4563434 105.5182106"/>
  <polygon class="st0" points="137.6633441 105.5182106 135.1113421 105.5182106 133.8353412 108.0862114 135.1113421 110.6542122 137.6633441 110.6542122 138.9393451 108.0862114 137.6633441 105.5182106"/>
  <polygon class="st0" points="132.5582416 115.7898094 130.0062396 115.7898094 128.7302386 118.3578102 130.0062396 120.925811 132.5582416 120.925811 133.8342425 118.3578102 132.5582416 115.7898094"/>
  <polygon class="st0" points="127.4532382 115.7898094 124.9012362 115.7898094 123.6252353 118.3578102 124.9012362 120.925811 127.4532382 120.925811 128.7292392 118.3578102 127.4532382 115.7898094"/>
  <polygon class="st0" points="137.6633441 115.7898094 135.1113421 115.7898094 133.8353412 118.3578102 135.1113421 120.925811 137.6633441 120.925811 138.9393451 118.3578102 137.6633441 115.7898094"/>
  <polygon class="st0" points="132.5598437 136.3329079 130.0078418 136.3329079 128.7318408 138.9009087 130.0078418 141.4689094 132.5598437 141.4689094 133.8358447 138.9009087 132.5598437 136.3329079"/>
  <polygon class="st0" points="127.4563434 136.3329079 124.9043414 136.3329079 123.6283404 138.9009087 124.9043414 141.4689094 127.4563434 141.4689094 128.7323443 138.9009087 127.4563434 136.3329079"/>
  <polygon class="st0" points="137.6633441 136.3329079 135.1113421 136.3329079 133.8353412 138.9009087 135.1113421 141.4689094 137.6633441 141.4689094 138.9393451 138.9009087 137.6633441 136.3329079"/>
  <polygon class="st0" points="132.5598437 126.061309 130.0078418 126.061309 128.7318408 128.6293098 130.0078418 131.1973106 132.5598437 131.1973106 133.8358447 128.6293098 132.5598437 126.061309"/>
  <polygon class="st0" points="127.4563434 126.061309 124.9043414 126.061309 123.6283404 128.6293098 124.9043414 131.1973106 127.4563434 131.1973106 128.7323443 128.6293098 127.4563434 126.061309"/>
  <polygon class="st0" points="137.6633441 126.061309 135.1113421 126.061309 133.8353412 128.6293098 135.1113421 131.1973106 137.6633441 131.1973106 138.9393451 128.6293098 137.6633441 126.061309"/>
  <polygon class="st0" points="132.5598437 146.6044113 130.0078418 146.6044113 128.7318408 149.1724121 130.0078418 151.7404129 132.5598437 151.7404129 133.8358447 149.1724121 132.5598437 146.6044113"/>
  <polygon class="st0" points="127.4563434 146.6044113 124.9043414 146.6044113 123.6283404 149.1724121 124.9043414 151.7404129 127.4563434 151.7404129 128.7323443 149.1724121 127.4563434 146.6044113"/>
  <polygon class="st0" points="137.6633441 146.6044113 135.1113421 146.6044113 133.8353412 149.1724121 135.1113421 151.7404129 137.6633441 151.7404129 138.9393451 149.1724121 137.6633441 146.6044113"/>
  <polygon class="st0" points="132.5598437 156.8760101 130.0078418 156.8760101 128.7318408 159.4440109 130.0078418 162.0120117 132.5598437 162.0120117 133.8358447 159.4440109 132.5598437 156.8760101"/>
  <polygon class="st0" points="127.4563434 156.8760101 124.9043414 156.8760101 123.6283404 159.4440109 124.9043414 162.0120117 127.4563434 162.0120117 128.7323443 159.4440109 127.4563434 156.8760101"/>
  <polygon class="st0" points="137.6633441 156.8760101 135.1113421 156.8760101 133.8353412 159.4440109 135.1113421 162.0120117 137.6633441 162.0120117 138.9393451 159.4440109 137.6633441 156.8760101"/>
  <polygon class="st0" points="132.5598437 167.1475098 130.0078418 167.1475098 128.7318408 169.7155105 130.0078418 172.2835094 132.5598437 172.2835094 133.8358447 169.7155105 132.5598437 167.1475098"/>
  <polygon class="st0" points="127.4563434 167.1475098 124.9043414 167.1475098 123.6283404 169.7155105 124.9043414 172.2835094 127.4563434 172.2835094 128.7323443 169.7155105 127.4563434 167.1475098"/>
  <polygon class="st0" points="137.6633441 167.1475098 135.1113421 167.1475098 133.8353412 169.7155105 135.1113421 172.2835094 137.6633441 172.2835094 138.9393451 169.7155105 137.6633441 167.1475098"/>
  <path class="st0" d="M202.8242187,200.4916992c-1.4873047,0-2.9750977-.4140625-4.1342773-1.2416992l-25.6435547-18.3256836c-2.2270508-1.5913086-3.9716797-4.9824219-3.9716797-7.7197266v-65.3525391c0-2.7368164,1.7446289-6.1274414,3.9716797-7.71875l25.6430664-18.3237305c2.3188477-1.6577148,5.9501953-1.6582031,8.269043-.0014648l25.6450195,18.3251953c2.2265625,1.5908203,3.9711914,4.9814453,3.9711914,7.71875v65.3525391c0,2.737793-1.7446289,6.1289062-3.9711914,7.7197266l-25.6450195,18.3251953c-1.1591797.828125-2.6464844,1.2421875-4.1342773,1.2421875ZM174.2094727,101.7602539c-1.6992188,1.2143555-3.1347656,4.0039062-3.1347656,6.0917969v65.3525391c0,2.0883789,1.4355469,4.878418,3.1347656,6.0927734l25.6430664,18.3251953c1.6103516,1.1503906,4.3325195,1.1503906,5.9428711,0l25.6450195-18.3251953c1.6992188-1.2138672,3.1342773-4.0039062,3.1342773-6.0927734v-65.3525391c0-2.0878906-1.4350586-4.8779297-3.1342773-6.0917969l-25.6450195-18.3251953c-1.6113281-1.1513672-4.3334961-1.1503906-5.9428711.0014648l-25.6430664,18.3237305Z"/>
  <polygon class="st0" points="201.5507419 110.6540138 198.9987399 110.6540138 197.7227389 113.2220146 198.9987399 115.7900154 201.5507419 115.7900154 202.8267428 113.2220146 201.5507419 110.6540138"/>
  <polygon class="st0" points="206.6541354 110.6540138 204.1021335 110.6540138 202.8261325 113.2220146 204.1021335 115.7900154 206.6541354 115.7900154 207.9301364 113.2220146 206.6541354 110.6540138"/>
  <polygon class="st0" points="201.5507419 131.1971123 198.9987399 131.1971123 197.7227389 133.7651131 198.9987399 136.3331139 201.5507419 136.3331139 202.8267428 133.7651131 201.5507419 131.1971123"/>
  <polygon class="st0" points="206.6541354 131.1971123 204.1021335 131.1971123 202.8261325 133.7651131 204.1021335 136.3331139 206.6541354 136.3331139 207.9301364 133.7651131 206.6541354 131.1971123"/>
  <polygon class="st0" points="201.5475375 120.9255134 198.9955356 120.9255134 197.7195346 123.4935142 198.9955356 126.061515 201.5475375 126.061515 202.8235385 123.4935142 201.5475375 120.9255134"/>
  <polygon class="st0" points="206.6541354 120.9255134 204.1021335 120.9255134 202.8261325 123.4935142 204.1021335 126.061515 206.6541354 126.061515 207.9301364 123.4935142 206.6541354 120.9255134"/>
  <polygon class="st0" points="201.5507419 141.4686119 198.9987399 141.4686119 197.7227389 144.0366127 198.9987399 146.6046135 201.5507419 146.6046135 202.8267428 144.0366127 201.5507419 141.4686119"/>
  <polygon class="st0" points="206.6541354 141.4686119 204.1021335 141.4686119 202.8261325 144.0366127 204.1021335 146.6046135 206.6541354 146.6046135 207.9301364 144.0366127 206.6541354 141.4686119"/>
  <polygon class="st0" points="201.5507419 151.7402107 198.9987399 151.7402107 197.7227389 154.3082115 198.9987399 156.8762123 201.5507419 156.8762123 202.8267428 154.3082115 201.5507419 151.7402107"/>
  <polygon class="st0" points="206.6541354 151.7402107 204.1021335 151.7402107 202.8261325 154.3082115 204.1021335 156.8762123 206.6541354 156.8762123 207.9301364 154.3082115 206.6541354 151.7402107"/>
  <polygon class="st0" points="201.5507419 162.0117103 198.9987399 162.0117103 197.7227389 164.5797111 198.9987399 167.1477119 201.5507419 167.1477119 202.8267428 164.5797111 201.5507419 162.0117103"/>
  <polygon class="st0" points="206.6541354 162.0117103 204.1021335 162.0117103 202.8261325 164.5797111 204.1021335 167.1477119 206.6541354 167.1477119 207.9301364 164.5797111 206.6541354 162.0117103"/>
  <polygon class="st0" points="204.1024386 105.5182106 201.5504367 105.5182106 200.2744357 108.0862114 201.5504367 110.6542122 204.1024386 110.6542122 205.3784396 108.0862114 204.1024386 105.5182106"/>
  <polygon class="st0" points="198.9989383 105.5182106 196.4469363 105.5182106 195.1709353 108.0862114 196.4469363 110.6542122 198.9989383 110.6542122 200.2749393 108.0862114 198.9989383 105.5182106"/>
  <polygon class="st0" points="209.205939 105.5182106 206.6539371 105.5182106 205.3779361 108.0862114 206.6539371 110.6542122 209.205939 110.6542122 210.48194 108.0862114 209.205939 105.5182106"/>
  <polygon class="st0" points="204.1008365 115.7898094 201.5488345 115.7898094 200.2728335 118.3578102 201.5488345 120.925811 204.1008365 120.925811 205.3768374 118.3578102 204.1008365 115.7898094"/>
  <polygon class="st0" points="198.9958407 115.7898094 196.4438388 115.7898094 195.1678378 118.3578102 196.4438388 120.925811 198.9958407 120.925811 200.2718417 118.3578102 198.9958407 115.7898094"/>
  <polygon class="st0" points="209.205939 115.7898094 206.6539371 115.7898094 205.3779361 118.3578102 206.6539371 120.925811 209.205939 120.925811 210.48194 118.3578102 209.205939 115.7898094"/>
  <polygon class="st0" points="204.1024386 136.3329079 201.5504367 136.3329079 200.2744357 138.9009087 201.5504367 141.4689094 204.1024386 141.4689094 205.3784396 138.9009087 204.1024386 136.3329079"/>
  <polygon class="st0" points="198.9989383 136.3329079 196.4469363 136.3329079 195.1709353 138.9009087 196.4469363 141.4689094 198.9989383 141.4689094 200.2749393 138.9009087 198.9989383 136.3329079"/>
  <polygon class="st0" points="209.205939 136.3329079 206.6539371 136.3329079 205.3779361 138.9009087 206.6539371 141.4689094 209.205939 141.4689094 210.48194 138.9009087 209.205939 136.3329079"/>
  <polygon class="st0" points="204.1024386 126.061309 201.5504367 126.061309 200.2744357 128.6293098 201.5504367 131.1973106 204.1024386 131.1973106 205.3784396 128.6293098 204.1024386 126.061309"/>
  <polygon class="st0" points="198.9989383 126.061309 196.4469363 126.061309 195.1709353 128.6293098 196.4469363 131.1973106 198.9989383 131.1973106 200.2749393 128.6293098 198.9989383 126.061309"/>
  <polygon class="st0" points="209.205939 126.061309 206.6539371 126.061309 205.3779361 128.6293098 206.6539371 131.1973106 209.205939 131.1973106 210.48194 128.6293098 209.205939 126.061309"/>
  <polygon class="st0" points="204.1024386 146.6044113 201.5504367 146.6044113 200.2744357 149.1724121 201.5504367 151.7404129 204.1024386 151.7404129 205.3784396 149.1724121 204.1024386 146.6044113"/>
  <polygon class="st0" points="198.9989383 146.6044113 196.4469363 146.6044113 195.1709353 149.1724121 196.4469363 151.7404129 198.9989383 151.7404129 200.2749393 149.1724121 198.9989383 146.6044113"/>
  <polygon class="st0" points="209.205939 146.6044113 206.6539371 146.6044113 205.3779361 149.1724121 206.6539371 151.7404129 209.205939 151.7404129 210.48194 149.1724121 209.205939 146.6044113"/>
  <polygon class="st0" points="204.1024386 156.8760101 201.5504367 156.8760101 200.2744357 159.4440109 201.5504367 162.0120117 204.1024386 162.0120117 205.3784396 159.4440109 204.1024386 156.8760101"/>
  <polygon class="st0" points="198.9989383 156.8760101 196.4469363 156.8760101 195.1709353 159.4440109 196.4469363 162.0120117 198.9989383 162.0120117 200.2749393 159.4440109 198.9989383 156.8760101"/>
  <polygon class="st0" points="209.205939 156.8760101 206.6539371 156.8760101 205.3779361 159.4440109 206.6539371 162.0120117 209.205939 162.0120117 210.48194 159.4440109 209.205939 156.8760101"/>
  <polygon class="st0" points="204.1024386 167.1475098 201.5504367 167.1475098 200.2744357 169.7155105 201.5504367 172.2835094 204.1024386 172.2835094 205.3784396 169.7155105 204.1024386 167.1475098"/>
  <polygon class="st0" points="198.9989383 167.1475098 196.4469363 167.1475098 195.1709353 169.7155105 196.4469363 172.2835094 198.9989383 172.2835094 200.2749393 169.7155105 198.9989383 167.1475098"/>
  <polygon class="st0" points="209.205939 167.1475098 206.6539371 167.1475098 205.3779361 169.7155105 206.6539371 172.2835094 209.205939 172.2835094 210.48194 169.7155105 209.205939 167.1475098"/>
</svg>