<?xml version="1.0" encoding="UTF-8"?>
<svg id="Layer_1" xmlns="http://www.w3.org/2000/svg" version="1.1" viewBox="0 0 469.105915 219.6711117">
  <!-- Generator: Adobe Illustrator 29.4.0, SVG Export Plug-In . SVG Version: 2.1.0 Build 152)  -->
  <defs>
    <style>
      .st0 {
        fill: #005e5e;
      }
    </style>
  </defs>
  <g>
    <path class="st0" d="M198.5851268,89.1951559c-2.6300049,0-4.9970093.5139999-7.1000061,1.5419998-2.1040039,1.0289993-3.7769928,2.427002-5.019989,4.1949997v-5.3069992h-12.2630005v40.0159988h12.2630005v-21.7289963c0-2.677002.6929932-4.7560043,2.0799866-6.2389984,1.3860016-1.4810028,3.2510071-2.2230072,5.5940094-2.2230072,2.3410034,0,4.2059937.7420044,5.5930023,2.2230072,1.3860016,1.4829941,2.0800018,3.5619965,2.0800018,6.2389984v21.7289963h12.1909943v-23.3779984c0-5.3069992-1.397995-9.477005-4.1950073-12.5139999-2.7969971-3.0360031-6.5379944-4.5540009-11.2229919-4.5540009M137.4851207,105.7611578c.3340149-2.1990051,1.2070007-3.8960037,2.6180115-5.0920029,1.4099884-1.1940002,3.1429901-1.7929993,5.1989899-1.7929993,2.1520081,0,3.9440002.6220016,5.3790131,1.8649979,1.4339905,1.2440033,2.1509857,2.9170074,2.1509857,5.0200043h-15.3470001ZM165.3821239,108.9881552c0-4.0159988-.848999-7.5299988-2.54599-10.5419998-1.6980133-3.0119934-4.052002-5.3300018-7.0640106-6.9559937-3.0119934-1.625-6.4539948-2.4380035-10.3259888-2.4380035-3.9690094,0-7.4830017.836998-10.5420074,2.5099945-3.0599976,1.6740036-5.4389954,4.064003-7.1360016,7.1710052-1.696991,3.1080017-2.5449982,6.7409973-2.5449982,10.8999977,0,4.1599998.8600006,7.7940025,2.5809937,10.901001,1.7210083,3.1079979,4.1110077,5.4980011,7.1720123,7.1710014,3.0589905,1.6739998,6.548996,2.5099983,10.4700012,2.5099983,3.25,0,6.1909943-.5970001,8.8199921-1.7929993,2.6289978-1.1940002,4.8159943-2.8440018,6.5619965-4.9480019,1.7450104-2.1029968,2.9520111-4.4700012,3.6220093-7.0999985h-13.052002c-1.1959991,2.5820007-3.3240051,3.8730011-6.3829956,3.8730011-2.0559998,0-3.7890015-.6570015-5.1990051-1.9720001-1.4109955-1.3150024-2.2120056-3.2150002-2.4020081-5.701004h27.753006c.1430054-1.2429962.2149963-2.4389954.2149963-3.5859985M106.3631267,109.5621565c0,3.0600014-.8600006,5.4860001-2.5820007,7.2789993-1.720993,1.7919998-3.8000031,2.6889992-6.2389984,2.6889992-2.4380035,0-4.5059967-.8839989-6.2030029-2.6539993-1.6969948-1.7679977-2.5459976-4.1829987-2.5459976-7.243,0-3.0590019.8490028-5.4729958,2.5459976-7.243,1.6970062-1.7679977,3.7649994-2.6529999,6.2030029-2.6529999,2.4860001,0,4.5780029.8730011,6.2750015,2.6170044,1.6969986,1.7459946,2.5459976,4.1489944,2.5459976,7.2079964M88.8651294,95.2911566v-5.6660004h-12.2630005v59.092001h12.2630005v-24.6690006c1.1949997,1.8170013,2.855999,3.2980003,4.9839973,4.4459991,2.1270065,1.1469994,4.5770035,1.7210007,7.3510056,1.7210007,3.298996,0,6.2859955-.8479996,8.9639969-2.5460014,2.6769943-1.6959991,4.7919998-4.1110001,6.3460007-7.2429962,1.5540009-3.1310043,2.3309937-6.7520027,2.3309937-10.8640022,0-4.1120033-.7769928-7.7209969-2.3309937-10.8289986-1.5540009-3.1070023-3.6690063-5.4970016-6.3460007-7.1710052-2.6780014-1.6729965-5.6650009-2.5099945-8.9639969-2.5099945-2.8220062,0-5.2840042.572998-7.3870087,1.720993-2.1039963,1.1470032-3.7529945,2.6529999-4.9479942,4.5180054M46.7701282,119.6011542c-2.3430004,0-4.2919998-.8599968-5.8449993-2.5809975-1.5540009-1.7210007-2.3300009-4.1830025-2.3300009-7.387001,0-3.25.7890005-5.7240028,2.3660002-7.4220009,1.578001-1.6959991,3.5610008-2.5459976,5.9519997-2.5459976,2.342001,0,4.3140011.8610001,5.9169998,2.5820007,1.6009998,1.7210007,2.4020004,4.1839981,2.4020004,7.3859978,0,3.2039986-.8249989,5.6660004-2.4740009,7.387001-1.6489983,1.7210007-3.6459999,2.5809975-5.987999,2.5809975M46.7701282,130.2151564c3.9200001,0,7.4689999-.8359985,10.6490002-2.5099983,3.1789989-1.6730003,5.6890011-4.0750008,7.5300007-7.2070007,1.8400002-3.1310005,2.7609978-6.7519989,2.7609978-10.8650017,0-4.1109962-.9089966-7.7319984-2.7249985-10.8640022-1.8170013-3.1309967-4.3030014-5.5329971-7.4580002-7.2070007-3.1549988-1.6729965-6.6940002-2.5099945-10.6140003-2.5099945s-7.4580002.836998-10.6129999,2.5099945c-3.1549997,1.6740036-5.6419992,4.076004-7.4579992,7.2070007-1.8180008,3.1320038-2.7250004,6.753006-2.7250004,10.8640022,0,4.1599998.8959999,7.7940025,2.6889992,10.901001,1.7930012,3.1079979,4.2540007,5.4980011,7.3860006,7.1710014,3.1309996,1.6739998,6.6570005,2.5099983,10.5780001,2.5099983"/>
    <path class="st0" d="M262.855894,169.7974037c-1.487793,0-2.9750977-.4130859-4.1347656-1.2412109l-25.6430664-18.3251953c-2.2270508-1.5917969-3.9716797-4.9824219-3.9716797-7.7197266v-65.3525391c0-2.7363281,1.7446289-6.1269531,3.9716797-7.71875l25.6425781-18.3237305c2.3193359-1.6572266,5.9511719-1.6582031,8.2695312-.0009766l25.6450195,18.324707c2.2270508,1.5917969,3.9711914,4.9824219,3.9711914,7.71875v65.3525391c0,2.7373047-1.7441406,6.1279297-3.9711914,7.7197266l-25.6450195,18.3251953c-1.1591797.828125-2.6469727,1.2412109-4.1342773,1.2412109ZM234.2411479,71.066935h0c-1.6992188,1.2138672-3.1347656,4.0039062-3.1347656,6.0917969v65.3525391c0,2.0878906,1.4355469,4.8789062,3.1347656,6.0927734l25.6425781,18.3251953c1.6108398,1.1513672,4.3330078,1.1503906,5.9438477,0l25.6445312-18.3251953c1.6987305-1.2148438,3.1342773-4.0048828,3.1342773-6.0927734v-65.3525391c0-2.0878906-1.4355469-4.8769531-3.1342773-6.0917969l-25.6450195-18.324707c-1.6088867-1.1499023-4.331543-1.1499023-5.9433594.0009766l-25.6425781,18.3237305Z"/>
  </g>
  <polygon class="st0" points="255.7587261 126.1827543 253.2067241 126.1827543 251.9307231 128.7507551 253.2067241 131.3187559 255.7587261 131.3187559 257.034727 128.7507551 255.7587261 126.1827543"/>
  <polygon class="st0" points="250.6552257 126.1827543 248.1032237 126.1827543 246.8272228 128.7507551 248.1032237 131.3187559 250.6552257 131.3187559 251.9312267 128.7507551 250.6552257 126.1827543"/>
  <polygon class="st0" points="245.5518321 126.1827543 242.9998302 126.1827543 241.7238292 128.7507551 242.9998302 131.3187559 245.5518321 131.3187559 246.8278331 128.7507551 245.5518321 126.1827543"/>
  <polygon class="st0" points="273.6194286 79.960758 271.0674266 79.960758 269.7914256 82.5287588 271.0674266 85.0967596 273.6194286 85.0967596 274.8954295 82.5287588 273.6194286 79.960758"/>
  <polygon class="st0" points="278.7229289 79.960758 276.170927 79.960758 274.894926 82.5287588 276.170927 85.0967596 278.7229289 85.0967596 279.9989299 82.5287588 278.7229289 79.960758"/>
  <polygon class="st0" points="273.6194286 100.5038565 271.0674266 100.5038565 269.7914256 103.0718573 271.0674266 105.6398581 273.6194286 105.6398581 274.8954295 103.0718573 273.6194286 100.5038565"/>
  <polygon class="st0" points="278.7229289 100.5038565 276.170927 100.5038565 274.894926 103.0718573 276.170927 105.6398581 278.7229289 105.6398581 279.9989299 103.0718573 278.7229289 100.5038565"/>
  <polygon class="st0" points="273.616331 90.2322577 271.0643291 90.2322577 269.7883281 92.8002585 271.0643291 95.3682593 273.616331 95.3682593 274.892332 92.8002585 273.616331 90.2322577"/>
  <polygon class="st0" points="278.7229289 90.2322577 276.170927 90.2322577 274.894926 92.8002585 276.170927 95.3682593 278.7229289 95.3682593 279.9989299 92.8002585 278.7229289 90.2322577"/>
  <polygon class="st0" points="273.6194286 110.7753561 271.0674266 110.7753561 269.7914256 113.3433569 271.0674266 115.9113577 273.6194286 115.9113577 274.8954295 113.3433569 273.6194286 110.7753561"/>
  <polygon class="st0" points="278.7229289 110.7753561 276.170927 110.7753561 274.894926 113.3433569 276.170927 115.9113577 278.7229289 115.9113577 279.9989299 113.3433569 278.7229289 110.7753561"/>
  <polygon class="st0" points="273.6194286 121.0469549 271.0674266 121.0469549 269.7914256 123.6149557 271.0674266 126.1829565 273.6194286 126.1829565 274.8954295 123.6149557 273.6194286 121.0469549"/>
  <polygon class="st0" points="278.7229289 121.0469549 276.170927 121.0469549 274.894926 123.6149557 276.170927 126.1829565 278.7229289 126.1829565 279.9989299 123.6149557 278.7229289 121.0469549"/>
  <polygon class="st0" points="273.6194286 131.3184546 271.0674266 131.3184546 269.7914256 133.8864554 271.0674266 136.4544562 273.6194286 136.4544562 274.8954295 133.8864554 273.6194286 131.3184546"/>
  <polygon class="st0" points="278.7229289 131.3184546 276.170927 131.3184546 274.894926 133.8864554 276.170927 136.4544562 278.7229289 136.4544562 279.9989299 133.8864554 278.7229289 131.3184546"/>
  <polygon class="st0" points="248.1035289 131.3184546 245.551527 131.3184546 244.275526 133.8864554 245.551527 136.4544562 248.1035289 136.4544562 249.3795299 133.8864554 248.1035289 131.3184546"/>
  <polygon class="st0" points="253.2070293 131.3184546 250.6550273 131.3184546 249.3790264 133.8864554 250.6550273 136.4544562 253.2070293 136.4544562 254.4830303 133.8864554 253.2070293 131.3184546"/>
  <polygon class="st0" points="276.1712322 74.8249548 273.6192302 74.8249548 272.3432292 77.3929556 273.6192302 79.9609564 276.1712322 79.9609564 277.4472331 77.3929556 276.1712322 74.8249548"/>
  <polygon class="st0" points="271.0677318 74.8249548 268.5157298 74.8249548 267.2397289 77.3929556 268.5157298 79.9609564 271.0677318 79.9609564 272.3437328 77.3929556 271.0677318 74.8249548"/>
  <polygon class="st0" points="281.2747325 74.8249548 278.7227306 74.8249548 277.4467296 77.3929556 278.7227306 79.9609564 281.2747325 79.9609564 282.5507182 77.3929556 281.2747325 74.8249548"/>
  <polygon class="st0" points="276.16963 85.0965536 273.617628 85.0965536 272.3416271 87.6645544 273.617628 90.2325552 276.16963 90.2325552 277.445631 87.6645544 276.16963 85.0965536"/>
  <polygon class="st0" points="271.0646343 85.0965536 268.5126323 85.0965536 267.2366313 87.6645544 268.5126323 90.2325552 271.0646343 90.2325552 272.3406352 87.6645544 271.0646343 85.0965536"/>
  <polygon class="st0" points="281.2747325 85.0965536 278.7227306 85.0965536 277.4467296 87.6645544 278.7227306 90.2325552 281.2747325 90.2325552 282.5507182 87.6645544 281.2747325 85.0965536"/>
  <polygon class="st0" points="276.1712322 105.6396521 273.6192302 105.6396521 272.3432292 108.2076529 273.6192302 110.7756537 276.1712322 110.7756537 277.4472331 108.2076529 276.1712322 105.6396521"/>
  <polygon class="st0" points="271.0677318 105.6396521 268.5157298 105.6396521 267.2397289 108.2076529 268.5157298 110.7756537 271.0677318 110.7756537 272.3437328 108.2076529 271.0677318 105.6396521"/>
  <polygon class="st0" points="281.2747325 105.6396521 278.7227306 105.6396521 277.4467296 108.2076529 278.7227306 110.7756537 281.2747325 110.7756537 282.5507182 108.2076529 281.2747325 105.6396521"/>
  <polygon class="st0" points="276.1712322 95.3680533 273.6192302 95.3680533 272.3432292 97.9360541 273.6192302 100.5040548 276.1712322 100.5040548 277.4472331 97.9360541 276.1712322 95.3680533"/>
  <polygon class="st0" points="271.0677318 95.3680533 268.5157298 95.3680533 267.2397289 97.9360541 268.5157298 100.5040548 271.0677318 100.5040548 272.3437328 97.9360541 271.0677318 95.3680533"/>
  <polygon class="st0" points="281.2747325 95.3680533 278.7227306 95.3680533 277.4467296 97.9360541 278.7227306 100.5040548 281.2747325 100.5040548 282.5507182 97.9360541 281.2747325 95.3680533"/>
  <polygon class="st0" points="276.1712322 115.9111555 273.6192302 115.9111555 272.3432292 118.4791563 273.6192302 121.0471571 276.1712322 121.0471571 277.4472331 118.4791563 276.1712322 115.9111555"/>
  <polygon class="st0" points="271.0677318 115.9111555 268.5157298 115.9111555 267.2397289 118.4791563 268.5157298 121.0471571 271.0677318 121.0471571 272.3437328 118.4791563 271.0677318 115.9111555"/>
  <polygon class="st0" points="281.2747325 115.9111555 278.7227306 115.9111555 277.4467296 118.4791563 278.7227306 121.0471571 281.2747325 121.0471571 282.5507182 118.4791563 281.2747325 115.9111555"/>
  <polygon class="st0" points="276.1712322 126.1827543 273.6192302 126.1827543 272.3432292 128.7507551 273.6192302 131.3187559 276.1712322 131.3187559 277.4472331 128.7507551 276.1712322 126.1827543"/>
  <polygon class="st0" points="271.0677318 126.1827543 268.5157298 126.1827543 267.2397289 128.7507551 268.5157298 131.3187559 271.0677318 131.3187559 272.3437328 128.7507551 271.0677318 126.1827543"/>
  <polygon class="st0" points="281.2747325 126.1827543 278.7227306 126.1827543 277.4467296 128.7507551 278.7227306 131.3187559 281.2747325 131.3187559 282.5507182 128.7507551 281.2747325 126.1827543"/>
  <polygon class="st0" points="255.7573222 136.454254 253.2053203 136.454254 251.9293193 139.0222548 253.2053203 141.5902537 255.7573222 141.5902537 257.0333232 139.0222548 255.7573222 136.454254"/>
  <polygon class="st0" points="276.1712322 136.454254 273.6192302 136.454254 272.3432292 139.0222548 273.6192302 141.5902537 276.1712322 141.5902537 277.4472331 139.0222548 276.1712322 136.454254"/>
  <polygon class="st0" points="250.6538219 136.454254 248.1018199 136.454254 246.825819 139.0222548 248.1018199 141.5902537 250.6538219 141.5902537 251.9298229 139.0222548 250.6538219 136.454254"/>
  <polygon class="st0" points="271.0677318 136.454254 268.5157298 136.454254 267.2397289 139.0222548 268.5157298 141.5902537 271.0677318 141.5902537 272.3437328 139.0222548 271.0677318 136.454254"/>
  <polygon class="st0" points="245.5504283 136.454254 242.9984264 136.454254 241.7224254 139.0222548 242.9984264 141.5902537 245.5504283 141.5902537 246.8264293 139.0222548 245.5504283 136.454254"/>
  <polygon class="st0" points="260.8608226 136.454254 258.3088207 136.454254 257.0328197 139.0222548 258.3088207 141.5902537 260.8608226 141.5902537 262.1368236 139.0222548 260.8608226 136.454254"/>
  <polygon class="st0" points="281.2747325 136.454254 278.7227306 136.454254 277.4467296 139.0222548 278.7227306 141.5902537 281.2747325 141.5902537 282.5507182 139.0222548 281.2747325 136.454254"/>
  <polygon class="st0" points="265.9642314 136.454254 263.4122295 136.454254 262.1362285 139.0222548 263.4122295 141.5902537 265.9642314 141.5902537 267.2402324 139.0222548 265.9642314 136.454254"/>
  <polygon class="st0" points="263.4149303 141.5900553 260.8629283 141.5900553 259.5869274 144.1580561 260.8629283 146.726055 263.4149303 146.726055 264.6909313 144.1580561 263.4149303 141.5900553"/>
  <polygon class="st0" points="258.3090343 141.5900553 255.7570323 141.5900553 254.4810314 144.1580561 255.7570323 146.726055 258.3090343 146.726055 259.5850353 144.1580561 258.3090343 141.5900553"/>
  <polygon class="st0" points="253.2056255 141.5900553 250.6536235 141.5900553 249.3776225 144.1580561 250.6536235 146.726055 253.2056255 146.726055 254.4816264 144.1580561 253.2056255 141.5900553"/>
  <polygon class="st0" points="268.5207347 141.5900553 265.9687328 141.5900553 264.6927318 144.1580561 265.9687328 146.726055 268.5207347 146.726055 269.7967357 144.1580561 268.5207347 141.5900553"/>
  <path class="st0" d="M334.3983745,169.7983803c-1.4873047,0-2.9750977-.4140625-4.1342773-1.2421875l-25.6435547-18.3251953c-2.2270508-1.5917969-3.9716797-4.9824219-3.9716797-7.7197266v-65.3525391c0-2.7363281,1.7446289-6.1269531,3.9716797-7.71875l25.6430664-18.3237305c2.3188477-1.6582031,5.9501953-1.6582031,8.269043-.0009766l25.6450195,18.324707c2.2270508,1.5917969,3.9711914,4.9824219,3.9711914,7.71875v65.3525391c0,2.7373047-1.7441406,6.1279297-3.9711914,7.7197266l-25.6450195,18.3251953c-1.1591797.828125-2.6464844,1.2421875-4.1342773,1.2421875ZM305.7836284,71.066935c-1.6992188,1.2148438-3.1347656,4.0039062-3.1347656,6.0917969v65.3525391c0,2.0878906,1.4355469,4.8779297,3.1347656,6.0927734l25.6430664,18.3251953c1.6108398,1.1513672,4.3325195,1.1503906,5.9433594,0l25.6445312-18.3251953c1.6987305-1.2148438,3.1342773-4.0048828,3.1342773-6.0927734v-65.3525391c0-2.0878906-1.4355469-4.8769531-3.1342773-6.0917969l-25.6450195-18.324707c-1.6103516-1.1508789-4.3325195-1.1508789-5.9428711.0009766l-25.6430664,18.3237305Z"/>
  <polygon class="st0" points="333.1248149 79.960758 330.572813 79.960758 329.296812 82.5287588 330.572813 85.0967596 333.1248149 85.0967596 334.4008159 82.5287588 333.1248149 79.960758"/>
  <polygon class="st0" points="338.2283306 79.960758 335.6763286 79.960758 334.4003276 82.5287588 335.6763286 85.0967596 338.2283306 85.0967596 339.5043315 82.5287588 338.2283306 79.960758"/>
  <polygon class="st0" points="333.1248149 100.5038565 330.572813 100.5038565 329.296812 103.0718573 330.572813 105.6398581 333.1248149 105.6398581 334.4008159 103.0718573 333.1248149 100.5038565"/>
  <polygon class="st0" points="338.2283306 100.5038565 335.6763286 100.5038565 334.4003276 103.0718573 335.6763286 105.6398581 338.2283306 105.6398581 339.5043315 103.0718573 338.2283306 100.5038565"/>
  <polygon class="st0" points="333.1216411 90.2322577 330.5696391 90.2322577 329.2936382 92.8002585 330.5696391 95.3682593 333.1216411 95.3682593 334.3976421 92.8002585 333.1216411 90.2322577"/>
  <polygon class="st0" points="338.2283306 90.2322577 335.6763286 90.2322577 334.4003276 92.8002585 335.6763286 95.3682593 338.2283306 95.3682593 339.5043315 92.8002585 338.2283306 90.2322577"/>
  <polygon class="st0" points="333.1248149 110.7753561 330.572813 110.7753561 329.296812 113.3433569 330.572813 115.9113577 333.1248149 115.9113577 334.4008159 113.3433569 333.1248149 110.7753561"/>
  <polygon class="st0" points="338.2283306 110.7753561 335.6763286 110.7753561 334.4003276 113.3433569 335.6763286 115.9113577 338.2283306 115.9113577 339.5043315 113.3433569 338.2283306 110.7753561"/>
  <polygon class="st0" points="333.1248149 121.0469549 330.572813 121.0469549 329.296812 123.6149557 330.572813 126.1829565 333.1248149 126.1829565 334.4008159 123.6149557 333.1248149 121.0469549"/>
  <polygon class="st0" points="338.2283306 121.0469549 335.6763286 121.0469549 334.4003276 123.6149557 335.6763286 126.1829565 338.2283306 126.1829565 339.5043315 123.6149557 338.2283306 121.0469549"/>
  <polygon class="st0" points="333.1248149 131.3184546 330.572813 131.3184546 329.296812 133.8864554 330.572813 136.4544562 333.1248149 136.4544562 334.4008159 133.8864554 333.1248149 131.3184546"/>
  <polygon class="st0" points="338.2283306 131.3184546 335.6763286 131.3184546 334.4003276 133.8864554 335.6763286 136.4544562 338.2283306 136.4544562 339.5043315 133.8864554 338.2283306 131.3184546"/>
  <polygon class="st0" points="335.6765422 74.8249548 333.1245403 74.8249548 331.8485393 77.3929556 333.1245403 79.9609564 335.6765422 79.9609564 336.9525432 77.3929556 335.6765422 74.8249548"/>
  <polygon class="st0" points="330.5731181 74.8249548 328.0211162 74.8249548 326.7451152 77.3929556 328.0211162 79.9609564 330.5731181 79.9609564 331.8491191 77.3929556 330.5731181 74.8249548"/>
  <polygon class="st0" points="340.7800273 74.8249548 338.2280254 74.8249548 336.9520244 77.3929556 338.2280254 79.9609564 340.7800273 79.9609564 342.0560283 77.3929556 340.7800273 74.8249548"/>
  <polygon class="st0" points="335.6750163 85.0965536 333.1230144 85.0965536 331.8470134 87.6645544 333.1230144 90.2325552 335.6750163 90.2325552 336.9510173 87.6645544 335.6750163 85.0965536"/>
  <polygon class="st0" points="330.5699138 85.0965536 328.0179118 85.0965536 326.7419109 87.6645544 328.0179118 90.2325552 330.5699138 90.2325552 331.8459148 87.6645544 330.5699138 85.0965536"/>
  <polygon class="st0" points="340.7800273 85.0965536 338.2280254 85.0965536 336.9520244 87.6645544 338.2280254 90.2325552 340.7800273 90.2325552 342.0560283 87.6645544 340.7800273 85.0965536"/>
  <polygon class="st0" points="335.6765422 105.6396521 333.1245403 105.6396521 331.8485393 108.2076529 333.1245403 110.7756537 335.6765422 110.7756537 336.9525432 108.2076529 335.6765422 105.6396521"/>
  <polygon class="st0" points="330.5731181 105.6396521 328.0211162 105.6396521 326.7451152 108.2076529 328.0211162 110.7756537 330.5731181 110.7756537 331.8491191 108.2076529 330.5731181 105.6396521"/>
  <polygon class="st0" points="340.7800273 105.6396521 338.2280254 105.6396521 336.9520244 108.2076529 338.2280254 110.7756537 340.7800273 110.7756537 342.0560283 108.2076529 340.7800273 105.6396521"/>
  <polygon class="st0" points="335.6765422 95.3680533 333.1245403 95.3680533 331.8485393 97.9360541 333.1245403 100.5040548 335.6765422 100.5040548 336.9525432 97.9360541 335.6765422 95.3680533"/>
  <polygon class="st0" points="330.5731181 95.3680533 328.0211162 95.3680533 326.7451152 97.9360541 328.0211162 100.5040548 330.5731181 100.5040548 331.8491191 97.9360541 330.5731181 95.3680533"/>
  <polygon class="st0" points="340.7800273 95.3680533 338.2280254 95.3680533 336.9520244 97.9360541 338.2280254 100.5040548 340.7800273 100.5040548 342.0560283 97.9360541 340.7800273 95.3680533"/>
  <polygon class="st0" points="335.6765422 115.9111555 333.1245403 115.9111555 331.8485393 118.4791563 333.1245403 121.0471571 335.6765422 121.0471571 336.9525432 118.4791563 335.6765422 115.9111555"/>
  <polygon class="st0" points="330.5731181 115.9111555 328.0211162 115.9111555 326.7451152 118.4791563 328.0211162 121.0471571 330.5731181 121.0471571 331.8491191 118.4791563 330.5731181 115.9111555"/>
  <polygon class="st0" points="340.7800273 115.9111555 338.2280254 115.9111555 336.9520244 118.4791563 338.2280254 121.0471571 340.7800273 121.0471571 342.0560283 118.4791563 340.7800273 115.9111555"/>
  <polygon class="st0" points="335.6765422 126.1827543 333.1245403 126.1827543 331.8485393 128.7507551 333.1245403 131.3187559 335.6765422 131.3187559 336.9525432 128.7507551 335.6765422 126.1827543"/>
  <polygon class="st0" points="330.5731181 126.1827543 328.0211162 126.1827543 326.7451152 128.7507551 328.0211162 131.3187559 330.5731181 131.3187559 331.8491191 128.7507551 330.5731181 126.1827543"/>
  <polygon class="st0" points="340.7800273 126.1827543 338.2280254 126.1827543 336.9520244 128.7507551 338.2280254 131.3187559 340.7800273 131.3187559 342.0560283 128.7507551 340.7800273 126.1827543"/>
  <polygon class="st0" points="335.6765422 136.454254 333.1245403 136.454254 331.8485393 139.0222548 333.1245403 141.5902537 335.6765422 141.5902537 336.9525432 139.0222548 335.6765422 136.454254"/>
  <polygon class="st0" points="330.5731181 136.454254 328.0211162 136.454254 326.7451152 139.0222548 328.0211162 141.5902537 330.5731181 141.5902537 331.8491191 139.0222548 330.5731181 136.454254"/>
  <polygon class="st0" points="340.7800273 136.454254 338.2280254 136.454254 336.9520244 139.0222548 338.2280254 141.5902537 340.7800273 141.5902537 342.0560283 139.0222548 340.7800273 136.454254"/>
  <path class="st0" d="M405.940855,169.7983803c-1.4873047,0-2.9750977-.4140625-4.1342773-1.2421875l-25.6435547-18.3251953c-2.2270508-1.5917969-3.9711914-4.9824219-3.9711914-7.7197266v-65.3525391c0-2.7363281,1.7441406-6.1269531,3.9711914-7.71875l25.6430664-18.3237305c2.3188477-1.6582031,5.9501953-1.6582031,8.269043-.0009766l25.6450195,18.324707c2.2270508,1.5917969,3.9716797,4.9824219,3.9716797,7.71875v65.3525391c0,2.7373047-1.7446289,6.1279297-3.9716797,7.7197266l-25.6450195,18.3251953c-1.1591797.828125-2.6464844,1.2421875-4.1342773,1.2421875ZM377.3261089,71.066935c-1.6987305,1.2148438-3.1342773,4.0039062-3.1342773,6.0917969v65.3525391c0,2.0878906,1.4355469,4.8779297,3.1342773,6.0927734l25.6430664,18.3251953c1.6108398,1.1513672,4.3325195,1.1503906,5.9433594,0l25.6445312-18.3251953c1.6992188-1.2148438,3.1347656-4.0048828,3.1347656-6.0927734v-65.3525391c0-2.0878906-1.4355469-4.8769531-3.1347656-6.0917969l-25.6450195-18.324707c-1.6103516-1.1508789-4.3325195-1.1508789-5.9428711.0009766l-25.6430664,18.3237305Z"/>
  <polygon class="st0" points="404.6674175 79.960758 402.1154155 79.960758 400.8394145 82.5287588 402.1154155 85.0967596 404.6674175 85.0967596 405.9434184 82.5287588 404.6674175 79.960758"/>
  <polygon class="st0" points="409.7709331 79.960758 407.2189311 79.960758 405.9429302 82.5287588 407.2189311 85.0967596 409.7709331 85.0967596 411.0469341 82.5287588 409.7709331 79.960758"/>
  <polygon class="st0" points="404.6674175 100.5038565 402.1154155 100.5038565 400.8394145 103.0718573 402.1154155 105.6398581 404.6674175 105.6398581 405.9434184 103.0718573 404.6674175 100.5038565"/>
  <polygon class="st0" points="409.7709331 100.5038565 407.2189311 100.5038565 405.9429302 103.0718573 407.2189311 105.6398581 409.7709331 105.6398581 411.0469341 103.0718573 409.7709331 100.5038565"/>
  <polygon class="st0" points="404.6642131 90.2322577 402.1122112 90.2322577 400.8362102 92.8002585 402.1122112 95.3682593 404.6642131 95.3682593 405.9402141 92.8002585 404.6642131 90.2322577"/>
  <polygon class="st0" points="409.7709331 90.2322577 407.2189311 90.2322577 405.9429302 92.8002585 407.2189311 95.3682593 409.7709331 95.3682593 411.0469341 92.8002585 409.7709331 90.2322577"/>
  <polygon class="st0" points="404.6674175 110.7753561 402.1154155 110.7753561 400.8394145 113.3433569 402.1154155 115.9113577 404.6674175 115.9113577 405.9434184 113.3433569 404.6674175 110.7753561"/>
  <polygon class="st0" points="409.7709331 110.7753561 407.2189311 110.7753561 405.9429302 113.3433569 407.2189311 115.9113577 409.7709331 115.9113577 411.0469341 113.3433569 409.7709331 110.7753561"/>
  <polygon class="st0" points="404.6674175 121.0469549 402.1154155 121.0469549 400.8394145 123.6149557 402.1154155 126.1829565 404.6674175 126.1829565 405.9434184 123.6149557 404.6674175 121.0469549"/>
  <polygon class="st0" points="409.7709331 121.0469549 407.2189311 121.0469549 405.9429302 123.6149557 407.2189311 126.1829565 409.7709331 126.1829565 411.0469341 123.6149557 409.7709331 121.0469549"/>
  <polygon class="st0" points="404.6674175 131.3184546 402.1154155 131.3184546 400.8394145 133.8864554 402.1154155 136.4544562 404.6674175 136.4544562 405.9434184 133.8864554 404.6674175 131.3184546"/>
  <polygon class="st0" points="409.7709331 131.3184546 407.2189311 131.3184546 405.9429302 133.8864554 407.2189311 136.4544562 409.7709331 136.4544562 411.0469341 133.8864554 409.7709331 131.3184546"/>
  <polygon class="st0" points="407.2191142 74.8249548 404.6671123 74.8249548 403.3911113 77.3929556 404.6671123 79.9609564 407.2191142 79.9609564 408.4951152 77.3929556 407.2191142 74.8249548"/>
  <polygon class="st0" points="402.1157207 74.8249548 399.5637187 74.8249548 398.2877178 77.3929556 399.5637187 79.9609564 402.1157207 79.9609564 403.3917217 77.3929556 402.1157207 74.8249548"/>
  <polygon class="st0" points="412.3226299 74.8249548 409.7706279 74.8249548 408.4946269 77.3929556 409.7706279 79.9609564 412.3226299 79.9609564 413.5986308 77.3929556 412.3226299 74.8249548"/>
  <polygon class="st0" points="407.2176189 85.0965536 404.6656169 85.0965536 403.389616 87.6645544 404.6656169 90.2325552 407.2176189 90.2325552 408.4936199 87.6645544 407.2176189 85.0965536"/>
  <polygon class="st0" points="402.1125163 85.0965536 399.5605144 85.0965536 398.2845134 87.6645544 399.5605144 90.2325552 402.1125163 90.2325552 403.3885173 87.6645544 402.1125163 85.0965536"/>
  <polygon class="st0" points="412.3226299 85.0965536 409.7706279 85.0965536 408.4946269 87.6645544 409.7706279 90.2325552 412.3226299 90.2325552 413.5986308 87.6645544 412.3226299 85.0965536"/>
  <polygon class="st0" points="407.2191142 105.6396521 404.6671123 105.6396521 403.3911113 108.2076529 404.6671123 110.7756537 407.2191142 110.7756537 408.4951152 108.2076529 407.2191142 105.6396521"/>
  <polygon class="st0" points="402.1157207 105.6396521 399.5637187 105.6396521 398.2877178 108.2076529 399.5637187 110.7756537 402.1157207 110.7756537 403.3917217 108.2076529 402.1157207 105.6396521"/>
  <polygon class="st0" points="412.3226299 105.6396521 409.7706279 105.6396521 408.4946269 108.2076529 409.7706279 110.7756537 412.3226299 110.7756537 413.5986308 108.2076529 412.3226299 105.6396521"/>
  <polygon class="st0" points="407.2191142 95.3680533 404.6671123 95.3680533 403.3911113 97.9360541 404.6671123 100.5040548 407.2191142 100.5040548 408.4951152 97.9360541 407.2191142 95.3680533"/>
  <polygon class="st0" points="402.1157207 95.3680533 399.5637187 95.3680533 398.2877178 97.9360541 399.5637187 100.5040548 402.1157207 100.5040548 403.3917217 97.9360541 402.1157207 95.3680533"/>
  <polygon class="st0" points="412.3226299 95.3680533 409.7706279 95.3680533 408.4946269 97.9360541 409.7706279 100.5040548 412.3226299 100.5040548 413.5986308 97.9360541 412.3226299 95.3680533"/>
  <polygon class="st0" points="407.2191142 115.9111555 404.6671123 115.9111555 403.3911113 118.4791563 404.6671123 121.0471571 407.2191142 121.0471571 408.4951152 118.4791563 407.2191142 115.9111555"/>
  <polygon class="st0" points="402.1157207 115.9111555 399.5637187 115.9111555 398.2877178 118.4791563 399.5637187 121.0471571 402.1157207 121.0471571 403.3917217 118.4791563 402.1157207 115.9111555"/>
  <polygon class="st0" points="412.3226299 115.9111555 409.7706279 115.9111555 408.4946269 118.4791563 409.7706279 121.0471571 412.3226299 121.0471571 413.5986308 118.4791563 412.3226299 115.9111555"/>
  <polygon class="st0" points="407.2191142 126.1827543 404.6671123 126.1827543 403.3911113 128.7507551 404.6671123 131.3187559 407.2191142 131.3187559 408.4951152 128.7507551 407.2191142 126.1827543"/>
  <polygon class="st0" points="402.1157207 126.1827543 399.5637187 126.1827543 398.2877178 128.7507551 399.5637187 131.3187559 402.1157207 131.3187559 403.3917217 128.7507551 402.1157207 126.1827543"/>
  <polygon class="st0" points="412.3226299 126.1827543 409.7706279 126.1827543 408.4946269 128.7507551 409.7706279 131.3187559 412.3226299 131.3187559 413.5986308 128.7507551 412.3226299 126.1827543"/>
  <polygon class="st0" points="407.2191142 136.454254 404.6671123 136.454254 403.3911113 139.0222548 404.6671123 141.5902537 407.2191142 141.5902537 408.4951152 139.0222548 407.2191142 136.454254"/>
  <polygon class="st0" points="402.1157207 136.454254 399.5637187 136.454254 398.2877178 139.0222548 399.5637187 141.5902537 402.1157207 141.5902537 403.3917217 139.0222548 402.1157207 136.454254"/>
  <polygon class="st0" points="412.3226299 136.454254 409.7706279 136.454254 408.4946269 139.0222548 409.7706279 141.5902537 412.3226299 141.5902537 413.5986308 139.0222548 412.3226299 136.454254"/>
</svg>