<?xml version="1.0" encoding="UTF-8"?>
<svg id="Layer_1" xmlns="http://www.w3.org/2000/svg" version="1.1" viewBox="0 0 469.105915 219.6711117">
  <!-- Generator: Adobe Illustrator 29.4.0, SVG Export Plug-In . SVG Version: 2.1.0 Build 152)  -->
  <defs>
    <style>
      .st0 {
        fill: #005e5e;
      }

      .st1 {
        fill: #fff381;
      }
    </style>
  </defs>
  <g>
    <path class="st0" d="M200.5758609,88.8879584c-2.6300049,0-4.9970093.5139999-7.1000061,1.5419998-2.1040039,1.0289993-3.7769928,2.427002-5.019989,4.1949997v-5.3069992h-12.2630005v40.0159988h12.2630005v-21.7289963c0-2.677002.6929932-4.7560043,2.0799866-6.2389984,1.3860016-1.4810028,3.2510071-2.2230072,5.5940094-2.2230072,2.3410034,0,4.2059937.7420044,5.5930023,2.2230072,1.3860016,1.4829941,2.0800018,3.5619965,2.0800018,6.2389984v21.7289963h12.1909943v-23.3779984c0-5.3069992-1.397995-9.477005-4.1950073-12.5139999-2.7969971-3.0360031-6.5379944-4.5540009-11.2229919-4.5540009M139.4758548,105.4539602c.3340149-2.1990051,1.2070007-3.8960037,2.6180115-5.0920029,1.4099884-1.1940002,3.1429901-1.7929993,5.1989899-1.7929993,2.1520081,0,3.9440002.6220016,5.3790131,1.8649979,1.4339905,1.2440033,2.1509857,2.9170074,2.1509857,5.0200043h-15.3470001ZM167.372858,108.6809576c0-4.0159988-.848999-7.5299988-2.54599-10.5419998-1.6980133-3.0119934-4.052002-5.3300018-7.0640106-6.9559937-3.0119934-1.625-6.4539948-2.4380035-10.3259888-2.4380035-3.9690094,0-7.4830017.836998-10.5420074,2.5099945-3.0599976,1.6740036-5.4389954,4.064003-7.1360016,7.1710052-1.696991,3.1080017-2.5449982,6.7409973-2.5449982,10.8999977,0,4.1599998.8600006,7.7940025,2.5809937,10.901001,1.7210083,3.1079979,4.1110077,5.4980011,7.1720123,7.1710014,3.0589905,1.6739998,6.548996,2.5099983,10.4700012,2.5099983,3.25,0,6.1909943-.5970001,8.8199921-1.7929993,2.6289978-1.1940002,4.8159943-2.8440018,6.5619965-4.9480019,1.7450104-2.1029968,2.9520111-4.4700012,3.6220093-7.0999985h-13.052002c-1.1959991,2.5820007-3.3240051,3.8730011-6.3829956,3.8730011-2.0559998,0-3.7890015-.6570015-5.1990051-1.9720001-1.4109955-1.3150024-2.2120056-3.2150002-2.4020081-5.701004h27.753006c.1430054-1.2429962.2149963-2.4389954.2149963-3.5859985M108.3538608,109.2549589c0,3.0600014-.8600006,5.4860001-2.5820007,7.2789993-1.720993,1.7919998-3.8000031,2.6889992-6.2389984,2.6889992-2.4380035,0-4.5059967-.8839989-6.2030029-2.6539993-1.6969948-1.7679977-2.5459976-4.1829987-2.5459976-7.243,0-3.0590019.8490028-5.4729958,2.5459976-7.243,1.6970062-1.7679977,3.7649994-2.6529999,6.2030029-2.6529999,2.4860001,0,4.5780029.8730011,6.2750015,2.6170044,1.6969986,1.7459946,2.5459976,4.1489944,2.5459976,7.2079964M90.8558635,94.983959v-5.6660004h-12.2630005v59.092001h12.2630005v-24.6690006c1.1949997,1.8170013,2.855999,3.2980003,4.9839973,4.4459991,2.1270065,1.1469994,4.5770035,1.7210007,7.3510056,1.7210007,3.298996,0,6.2859955-.8479996,8.9639969-2.5460014,2.6769943-1.6959991,4.7919998-4.1110001,6.3460007-7.2429962,1.5540009-3.1310043,2.3309937-6.7520027,2.3309937-10.8640022,0-4.1120033-.7769928-7.7209969-2.3309937-10.8289986-1.5540009-3.1070023-3.6690063-5.4970016-6.3460007-7.1710052-2.6780014-1.6729965-5.6650009-2.5099945-8.9639969-2.5099945-2.8220062,0-5.2840042.572998-7.3870087,1.720993-2.1039963,1.1470032-3.7529945,2.6529999-4.9479942,4.5180054M48.7608623,119.2939566c-2.3430004,0-4.2919998-.8599968-5.8449993-2.5809975-1.5540009-1.7210007-2.3300009-4.1830025-2.3300009-7.387001,0-3.25.7890005-5.7240028,2.3660002-7.4220009,1.578001-1.6959991,3.5610008-2.5459976,5.9519997-2.5459976,2.342001,0,4.3140011.8610001,5.9169998,2.5820007,1.6009998,1.7210007,2.4020004,4.1839981,2.4020004,7.3859978,0,3.2039986-.8249989,5.6660004-2.4740009,7.387001-1.6489983,1.7210007-3.6459999,2.5809975-5.987999,2.5809975M48.7608623,129.9079588c3.9200001,0,7.4689999-.8359985,10.6490002-2.5099983,3.1789989-1.6730003,5.6890011-4.0750008,7.5300007-7.2070007,1.8400002-3.1310005,2.7609978-6.7519989,2.7609978-10.8650017,0-4.1109962-.9089966-7.7319984-2.7249985-10.8640022-1.8170013-3.1309967-4.3030014-5.5329971-7.4580002-7.2070007-3.1549988-1.6729965-6.6940002-2.5099945-10.6140003-2.5099945s-7.4580002.836998-10.6129999,2.5099945c-3.1549997,1.6740036-5.6419992,4.076004-7.4579992,7.2070007-1.8180008,3.1320038-2.7250004,6.753006-2.7250004,10.8640022,0,4.1599998.8959999,7.7940025,2.6889992,10.901001,1.7930012,3.1079979,4.2540007,5.4980011,7.3860006,7.1710014,3.1309996,1.6739998,6.6570005,2.5099983,10.5780001,2.5099983"/>
    <path class="st1" d="M234.7216587,68.9657553c-2.0019989,1.4309998-3.6239929,4.5839996-3.6239929,7.0439987v66.6669998c0,2.4599991,1.621994,5.6139984,3.6239929,7.0439987l26.1589966,18.6930008c2.0010071,1.4309998,5.2470093,1.4309998,7.2480011,0l26.1600189-18.6930008c2.0019836-1.4300003,3.625-4.5839996,3.625-7.0439987v-66.6669998c0-2.4599991-1.6230164-5.612999-3.625-7.0439987l-26.1600189-18.6930008c-2.0009918-1.4300003-5.246994-1.4300003-7.2480011,0l-26.1589966,18.6930008Z"/>
  </g>
  <polygon class="st0" points="257.4077549 125.69046 254.8557529 125.69046 253.5797519 128.2584608 254.8557529 130.8264616 257.4077549 130.8264616 258.6837558 128.2584608 257.4077549 125.69046"/>
  <polygon class="st0" points="252.3043613 125.69046 249.7523594 125.69046 248.4763584 128.2584608 249.7523594 130.8264616 252.3043613 130.8264616 253.5803623 128.2584608 252.3043613 125.69046"/>
  <polygon class="st0" points="247.2008609 125.69046 244.648859 125.69046 243.372858 128.2584608 244.648859 130.8264616 247.2008609 130.8264616 248.4768619 128.2584608 247.2008609 125.69046"/>
  <polygon class="st0" points="275.2685642 79.4685553 272.7165622 79.4685553 271.4405613 82.0365561 272.7165622 84.6045569 275.2685642 84.6045569 276.5445652 82.0365561 275.2685642 79.4685553"/>
  <polygon class="st0" points="280.3720646 79.4685553 277.8200626 79.4685553 276.5440616 82.0365561 277.8200626 84.6045569 280.3720646 84.6045569 281.6480655 82.0365561 280.3720646 79.4685553"/>
  <polygon class="st0" points="275.2685642 100.0116614 272.7165622 100.0116614 271.4405613 102.5796621 272.7165622 105.1476629 275.2685642 105.1476629 276.5445652 102.5796621 275.2685642 100.0116614"/>
  <polygon class="st0" points="280.3720646 100.0116614 277.8200626 100.0116614 276.5440616 102.5796621 277.8200626 105.1476629 280.3720646 105.1476629 281.6480655 102.5796621 280.3720646 100.0116614"/>
  <polygon class="st0" points="275.2653599 89.7400549 272.7133579 89.7400549 271.4373569 92.3080557 272.7133579 94.8760565 275.2653599 94.8760565 276.5413608 92.3080557 275.2653599 89.7400549"/>
  <polygon class="st0" points="280.3720646 89.7400549 277.8200626 89.7400549 276.5440616 92.3080557 277.8200626 94.8760565 280.3720646 94.8760565 281.6480655 92.3080557 280.3720646 89.7400549"/>
  <polygon class="st0" points="275.2685642 110.2831572 272.7165622 110.2831572 271.4405613 112.851158 272.7165622 115.4191588 275.2685642 115.4191588 276.5445652 112.851158 275.2685642 110.2831572"/>
  <polygon class="st0" points="280.3720646 110.2831572 277.8200626 110.2831572 276.5440616 112.851158 277.8200626 115.4191588 280.3720646 115.4191588 281.6480655 112.851158 280.3720646 110.2831572"/>
  <polygon class="st0" points="275.2685642 120.5547598 272.7165622 120.5547598 271.4405613 123.1227606 272.7165622 125.6907614 275.2685642 125.6907614 276.5445652 123.1227606 275.2685642 120.5547598"/>
  <polygon class="st0" points="280.3720646 120.5547598 277.8200626 120.5547598 276.5440616 123.1227606 277.8200626 125.6907614 280.3720646 125.6907614 281.6480655 123.1227606 280.3720646 120.5547598"/>
  <polygon class="st0" points="275.2685642 130.8262594 272.7165622 130.8262594 271.4405613 133.3942602 272.7165622 135.962261 275.2685642 135.962261 276.5445652 133.3942602 275.2685642 130.8262594"/>
  <polygon class="st0" points="280.3720646 130.8262594 277.8200626 130.8262594 276.5440616 133.3942602 277.8200626 135.962261 280.3720646 135.962261 281.6480655 133.3942602 280.3720646 130.8262594"/>
  <polygon class="st0" points="249.7525577 130.8262594 247.2005558 130.8262594 245.9245548 133.3942602 247.2005558 135.962261 249.7525577 135.962261 251.0285587 133.3942602 249.7525577 130.8262594"/>
  <polygon class="st0" points="254.8560581 130.8262594 252.3040561 130.8262594 251.0280552 133.3942602 252.3040561 135.962261 254.8560581 135.962261 256.1320591 133.3942602 254.8560581 130.8262594"/>
  <polygon class="st0" points="277.820261 74.3326605 275.268259 74.3326605 273.992258 76.9006613 275.268259 79.4686621 277.820261 79.4686621 279.096262 76.9006613 277.820261 74.3326605"/>
  <polygon class="st0" points="272.7167606 74.3326605 270.1647587 74.3326605 268.8887577 76.9006613 270.1647587 79.4686621 272.7167606 79.4686621 273.9927616 76.9006613 272.7167606 74.3326605"/>
  <polygon class="st0" points="282.9237613 74.3326605 280.3717594 74.3326605 279.0957584 76.9006613 280.3717594 79.4686621 282.9237613 79.4686621 284.1997471 76.9006613 282.9237613 74.3326605"/>
  <polygon class="st0" points="277.8186588 84.6042593 275.2666568 84.6042593 273.9906559 87.1722601 275.2666568 89.7402609 277.8186588 89.7402609 279.0946598 87.1722601 277.8186588 84.6042593"/>
  <polygon class="st0" points="272.7136631 84.6042593 270.1616611 84.6042593 268.8856601 87.1722601 270.1616611 89.7402609 272.7136631 89.7402609 273.9896641 87.1722601 272.7136631 84.6042593"/>
  <polygon class="st0" points="282.9237613 84.6042593 280.3717594 84.6042593 279.0957584 87.1722601 280.3717594 89.7402609 282.9237613 89.7402609 284.1997471 87.1722601 282.9237613 84.6042593"/>
  <polygon class="st0" points="277.820261 105.1473578 275.268259 105.1473578 273.992258 107.7153586 275.268259 110.2833594 277.820261 110.2833594 279.096262 107.7153586 277.820261 105.1473578"/>
  <polygon class="st0" points="272.7167606 105.1473578 270.1647587 105.1473578 268.8887577 107.7153586 270.1647587 110.2833594 272.7167606 110.2833594 273.9927616 107.7153586 272.7167606 105.1473578"/>
  <polygon class="st0" points="282.9237613 105.1473578 280.3717594 105.1473578 279.0957584 107.7153586 280.3717594 110.2833594 282.9237613 110.2833594 284.1997471 107.7153586 282.9237613 105.1473578"/>
  <polygon class="st0" points="277.820261 94.8757589 275.268259 94.8757589 273.992258 97.4437597 275.268259 100.0117605 277.820261 100.0117605 279.096262 97.4437597 277.820261 94.8757589"/>
  <polygon class="st0" points="272.7167606 94.8757589 270.1647587 94.8757589 268.8887577 97.4437597 270.1647587 100.0117605 272.7167606 100.0117605 273.9927616 97.4437597 272.7167606 94.8757589"/>
  <polygon class="st0" points="282.9237613 94.8757589 280.3717594 94.8757589 279.0957584 97.4437597 280.3717594 100.0117605 282.9237613 100.0117605 284.1997471 97.4437597 282.9237613 94.8757589"/>
  <polygon class="st0" points="277.820261 115.4188574 275.268259 115.4188574 273.992258 117.9868582 275.268259 120.554859 277.820261 120.554859 279.096262 117.9868582 277.820261 115.4188574"/>
  <polygon class="st0" points="272.7167606 115.4188574 270.1647587 115.4188574 268.8887577 117.9868582 270.1647587 120.554859 272.7167606 120.554859 273.9927616 117.9868582 272.7167606 115.4188574"/>
  <polygon class="st0" points="282.9237613 115.4188574 280.3717594 115.4188574 279.0957584 117.9868582 280.3717594 120.554859 282.9237613 120.554859 284.1997471 117.9868582 282.9237613 115.4188574"/>
  <polygon class="st0" points="277.820261 125.69046 275.268259 125.69046 273.992258 128.2584608 275.268259 130.8264616 277.820261 130.8264616 279.096262 128.2584608 277.820261 125.69046"/>
  <polygon class="st0" points="272.7167606 125.69046 270.1647587 125.69046 268.8887577 128.2584608 270.1647587 130.8264616 272.7167606 130.8264616 273.9927616 128.2584608 272.7167606 125.69046"/>
  <polygon class="st0" points="282.9237613 125.69046 280.3717594 125.69046 279.0957584 128.2584608 280.3717594 130.8264616 282.9237613 130.8264616 284.1997471 128.2584608 282.9237613 125.69046"/>
  <polygon class="st0" points="257.4063663 135.9619597 254.8543644 135.9619597 253.5783634 138.5299605 254.8543644 141.0979593 257.4063663 141.0979593 258.6823673 138.5299605 257.4063663 135.9619597"/>
  <polygon class="st0" points="277.820261 135.9619597 275.268259 135.9619597 273.992258 138.5299605 275.268259 141.0979593 277.820261 141.0979593 279.096262 138.5299605 277.820261 135.9619597"/>
  <polygon class="st0" points="252.302866 135.9619597 249.750864 135.9619597 248.474863 138.5299605 249.750864 141.0979593 252.302866 141.0979593 253.5788669 138.5299605 252.302866 135.9619597"/>
  <polygon class="st0" points="272.7167606 135.9619597 270.1647587 135.9619597 268.8887577 138.5299605 270.1647587 141.0979593 272.7167606 141.0979593 273.9927616 138.5299605 272.7167606 135.9619597"/>
  <polygon class="st0" points="247.1994571 135.9619597 244.6474552 135.9619597 243.3714542 138.5299605 244.6474552 141.0979593 247.1994571 141.0979593 248.4754581 138.5299605 247.1994571 135.9619597"/>
  <polygon class="st0" points="262.5098667 135.9619597 259.9578647 135.9619597 258.6818638 138.5299605 259.9578647 141.0979593 262.5098667 141.0979593 263.7858677 138.5299605 262.5098667 135.9619597"/>
  <polygon class="st0" points="282.9237613 135.9619597 280.3717594 135.9619597 279.0957584 138.5299605 280.3717594 141.0979593 282.9237613 141.0979593 284.1997471 138.5299605 282.9237613 135.9619597"/>
  <polygon class="st0" points="267.6133671 135.9619597 265.0613651 135.9619597 263.7853641 138.5299605 265.0613651 141.0979593 267.6133671 141.0979593 268.889368 138.5299605 267.6133671 135.9619597"/>
  <polygon class="st0" points="265.0639591 141.0978583 262.5119571 141.0978583 261.2359562 143.665859 262.5119571 146.2338579 265.0639591 146.2338579 266.3399601 143.665859 265.0639591 141.0978583"/>
  <polygon class="st0" points="259.9581547 141.0978583 257.4061527 141.0978583 256.1301517 143.665859 257.4061527 146.2338579 259.9581547 146.2338579 261.2341556 143.665859 259.9581547 141.0978583"/>
  <polygon class="st0" points="254.8546543 141.0978583 252.3026523 141.0978583 251.0266514 143.665859 252.3026523 146.2338579 254.8546543 146.2338579 256.1306553 143.665859 254.8546543 141.0978583"/>
  <polygon class="st0" points="270.1697635 141.0978583 267.6177616 141.0978583 266.3417606 143.665859 267.6177616 146.2338579 270.1697635 146.2338579 271.4457645 143.665859 270.1697635 141.0978583"/>
  <path class="st1" d="M306.2641697,68.9657553c-2.0020142,1.4309998-3.6239929,4.5839996-3.6239929,7.0439987v66.6669998c0,2.4599991,1.6219788,5.6139984,3.6239929,7.0439987l26.1589966,18.6930008c2.0010071,1.4309998,5.2470093,1.4309998,7.2480164,0l26.1599731-18.6930008c2.0020142-1.4300003,3.625-4.5839996,3.625-7.0439987v-66.6669998c0-2.4599991-1.6229858-5.612999-3.625-7.0439987l-26.1599731-18.6930008c-2.0010071-1.4300003-5.2470093-1.4300003-7.2480164,0l-26.1589966,18.6930008Z"/>
  <polygon class="st0" points="334.7738743 79.4685553 332.2218723 79.4685553 330.9458713 82.0365561 332.2218723 84.6045569 334.7738743 84.6045569 336.0498752 82.0365561 334.7738743 79.4685553"/>
  <polygon class="st0" points="339.8773594 79.4685553 337.3253574 79.4685553 336.0493564 82.0365561 337.3253574 84.6045569 339.8773594 84.6045569 341.1533603 82.0365561 339.8773594 79.4685553"/>
  <polygon class="st0" points="334.7738743 100.0116614 332.2218723 100.0116614 330.9458713 102.5796621 332.2218723 105.1476629 334.7738743 105.1476629 336.0498752 102.5796621 334.7738743 100.0116614"/>
  <polygon class="st0" points="339.8773594 100.0116614 337.3253574 100.0116614 336.0493564 102.5796621 337.3253574 105.1476629 339.8773594 105.1476629 341.1533603 102.5796621 339.8773594 100.0116614"/>
  <polygon class="st0" points="334.7707615 89.7400549 332.2187595 89.7400549 330.9427585 92.3080557 332.2187595 94.8760565 334.7707615 94.8760565 336.0467624 92.3080557 334.7707615 89.7400549"/>
  <polygon class="st0" points="339.8773594 89.7400549 337.3253574 89.7400549 336.0493564 92.3080557 337.3253574 94.8760565 339.8773594 94.8760565 341.1533603 92.3080557 339.8773594 89.7400549"/>
  <polygon class="st0" points="334.7738743 110.2831572 332.2218723 110.2831572 330.9458713 112.851158 332.2218723 115.4191588 334.7738743 115.4191588 336.0498752 112.851158 334.7738743 110.2831572"/>
  <polygon class="st0" points="339.8773594 110.2831572 337.3253574 110.2831572 336.0493564 112.851158 337.3253574 115.4191588 339.8773594 115.4191588 341.1533603 112.851158 339.8773594 110.2831572"/>
  <polygon class="st0" points="334.7738743 120.5547598 332.2218723 120.5547598 330.9458713 123.1227606 332.2218723 125.6907614 334.7738743 125.6907614 336.0498752 123.1227606 334.7738743 120.5547598"/>
  <polygon class="st0" points="339.8773594 120.5547598 337.3253574 120.5547598 336.0493564 123.1227606 337.3253574 125.6907614 339.8773594 125.6907614 341.1533603 123.1227606 339.8773594 120.5547598"/>
  <polygon class="st0" points="334.7738743 130.8262594 332.2218723 130.8262594 330.9458713 133.3942602 332.2218723 135.962261 334.7738743 135.962261 336.0498752 133.3942602 334.7738743 130.8262594"/>
  <polygon class="st0" points="339.8773594 130.8262594 337.3253574 130.8262594 336.0493564 133.3942602 337.3253574 135.962261 339.8773594 135.962261 341.1533603 133.3942602 339.8773594 130.8262594"/>
  <polygon class="st0" points="337.325571 74.3326605 334.7735691 74.3326605 333.4975681 76.9006613 334.7735691 79.4686621 337.325571 79.4686621 338.601572 76.9006613 337.325571 74.3326605"/>
  <polygon class="st0" points="332.222147 74.3326605 329.670145 74.3326605 328.394144 76.9006613 329.670145 79.4686621 332.222147 79.4686621 333.4981479 76.9006613 332.222147 74.3326605"/>
  <polygon class="st0" points="342.4290561 74.3326605 339.8770542 74.3326605 338.6010532 76.9006613 339.8770542 79.4686621 342.4290561 79.4686621 343.7050571 76.9006613 342.4290561 74.3326605"/>
  <polygon class="st0" points="337.3240757 84.6042593 334.7720737 84.6042593 333.4960727 87.1722601 334.7720737 89.7402609 337.3240757 89.7402609 338.6000766 87.1722601 337.3240757 84.6042593"/>
  <polygon class="st0" points="332.2189731 84.6042593 329.6669712 84.6042593 328.3909702 87.1722601 329.6669712 89.7402609 332.2189731 89.7402609 333.4949741 87.1722601 332.2189731 84.6042593"/>
  <polygon class="st0" points="342.4290561 84.6042593 339.8770542 84.6042593 338.6010532 87.1722601 339.8770542 89.7402609 342.4290561 89.7402609 343.7050571 87.1722601 342.4290561 84.6042593"/>
  <polygon class="st0" points="337.325571 105.1473578 334.7735691 105.1473578 333.4975681 107.7153586 334.7735691 110.2833594 337.325571 110.2833594 338.601572 107.7153586 337.325571 105.1473578"/>
  <polygon class="st0" points="332.222147 105.1473578 329.670145 105.1473578 328.394144 107.7153586 329.670145 110.2833594 332.222147 110.2833594 333.4981479 107.7153586 332.222147 105.1473578"/>
  <polygon class="st0" points="342.4290561 105.1473578 339.8770542 105.1473578 338.6010532 107.7153586 339.8770542 110.2833594 342.4290561 110.2833594 343.7050571 107.7153586 342.4290561 105.1473578"/>
  <polygon class="st0" points="337.325571 94.8757589 334.7735691 94.8757589 333.4975681 97.4437597 334.7735691 100.0117605 337.325571 100.0117605 338.601572 97.4437597 337.325571 94.8757589"/>
  <polygon class="st0" points="332.222147 94.8757589 329.670145 94.8757589 328.394144 97.4437597 329.670145 100.0117605 332.222147 100.0117605 333.4981479 97.4437597 332.222147 94.8757589"/>
  <polygon class="st0" points="342.4290561 94.8757589 339.8770542 94.8757589 338.6010532 97.4437597 339.8770542 100.0117605 342.4290561 100.0117605 343.7050571 97.4437597 342.4290561 94.8757589"/>
  <polygon class="st0" points="337.325571 115.4188574 334.7735691 115.4188574 333.4975681 117.9868582 334.7735691 120.554859 337.325571 120.554859 338.601572 117.9868582 337.325571 115.4188574"/>
  <polygon class="st0" points="332.222147 115.4188574 329.670145 115.4188574 328.394144 117.9868582 329.670145 120.554859 332.222147 120.554859 333.4981479 117.9868582 332.222147 115.4188574"/>
  <polygon class="st0" points="342.4290561 115.4188574 339.8770542 115.4188574 338.6010532 117.9868582 339.8770542 120.554859 342.4290561 120.554859 343.7050571 117.9868582 342.4290561 115.4188574"/>
  <polygon class="st0" points="337.325571 125.69046 334.7735691 125.69046 333.4975681 128.2584608 334.7735691 130.8264616 337.325571 130.8264616 338.601572 128.2584608 337.325571 125.69046"/>
  <polygon class="st0" points="332.222147 125.69046 329.670145 125.69046 328.394144 128.2584608 329.670145 130.8264616 332.222147 130.8264616 333.4981479 128.2584608 332.222147 125.69046"/>
  <polygon class="st0" points="342.4290561 125.69046 339.8770542 125.69046 338.6010532 128.2584608 339.8770542 130.8264616 342.4290561 130.8264616 343.7050571 128.2584608 342.4290561 125.69046"/>
  <polygon class="st0" points="337.325571 135.9619597 334.7735691 135.9619597 333.4975681 138.5299605 334.7735691 141.0979593 337.325571 141.0979593 338.601572 138.5299605 337.325571 135.9619597"/>
  <polygon class="st0" points="332.222147 135.9619597 329.670145 135.9619597 328.394144 138.5299605 329.670145 141.0979593 332.222147 141.0979593 333.4981479 138.5299605 332.222147 135.9619597"/>
  <polygon class="st0" points="342.4290561 135.9619597 339.8770542 135.9619597 338.6010532 138.5299605 339.8770542 141.0979593 342.4290561 141.0979593 343.7050571 138.5299605 342.4290561 135.9619597"/>
  <path class="st1" d="M377.8067722,68.9657553c-2.0020142,1.4309998-3.6239929,4.5839996-3.6239929,7.0439987v66.6669998c0,2.4599991,1.6219788,5.6139984,3.6239929,7.0439987l26.1589966,18.6930008c2.0010071,1.4309998,5.2470093,1.4309998,7.2480164,0l26.1599731-18.6930008c2.0020142-1.4300003,3.625-4.5839996,3.625-7.0439987v-66.6669998c0-2.4599991-1.6229858-5.612999-3.625-7.0439987l-26.1599731-18.6930008c-2.0010071-1.4300003-5.2470093-1.4300003-7.2480164,0l-26.1589966,18.6930008Z"/>
  <polygon class="st0" points="406.3164768 79.4685553 403.7644748 79.4685553 402.4884739 82.0365561 403.7644748 84.6045569 406.3164768 84.6045569 407.5924778 82.0365561 406.3164768 79.4685553"/>
  <polygon class="st0" points="411.4199619 79.4685553 408.8679599 79.4685553 407.591959 82.0365561 408.8679599 84.6045569 411.4199619 84.6045569 412.6959629 82.0365561 411.4199619 79.4685553"/>
  <polygon class="st0" points="406.3164768 100.0116614 403.7644748 100.0116614 402.4884739 102.5796621 403.7644748 105.1476629 406.3164768 105.1476629 407.5924778 102.5796621 406.3164768 100.0116614"/>
  <polygon class="st0" points="411.4199619 100.0116614 408.8679599 100.0116614 407.591959 102.5796621 408.8679599 105.1476629 411.4199619 105.1476629 412.6959629 102.5796621 411.4199619 100.0116614"/>
  <polygon class="st0" points="406.313364 89.7400549 403.761362 89.7400549 402.4853611 92.3080557 403.761362 94.8760565 406.313364 94.8760565 407.589365 92.3080557 406.313364 89.7400549"/>
  <polygon class="st0" points="411.4199619 89.7400549 408.8679599 89.7400549 407.591959 92.3080557 408.8679599 94.8760565 411.4199619 94.8760565 412.6959629 92.3080557 411.4199619 89.7400549"/>
  <polygon class="st0" points="406.3164768 110.2831572 403.7644748 110.2831572 402.4884739 112.851158 403.7644748 115.4191588 406.3164768 115.4191588 407.5924778 112.851158 406.3164768 110.2831572"/>
  <polygon class="st0" points="411.4199619 110.2831572 408.8679599 110.2831572 407.591959 112.851158 408.8679599 115.4191588 411.4199619 115.4191588 412.6959629 112.851158 411.4199619 110.2831572"/>
  <polygon class="st0" points="406.3164768 120.5547598 403.7644748 120.5547598 402.4884739 123.1227606 403.7644748 125.6907614 406.3164768 125.6907614 407.5924778 123.1227606 406.3164768 120.5547598"/>
  <polygon class="st0" points="411.4199619 120.5547598 408.8679599 120.5547598 407.591959 123.1227606 408.8679599 125.6907614 411.4199619 125.6907614 412.6959629 123.1227606 411.4199619 120.5547598"/>
  <polygon class="st0" points="406.3164768 130.8262594 403.7644748 130.8262594 402.4884739 133.3942602 403.7644748 135.962261 406.3164768 135.962261 407.5924778 133.3942602 406.3164768 130.8262594"/>
  <polygon class="st0" points="411.4199619 130.8262594 408.8679599 130.8262594 407.591959 133.3942602 408.8679599 135.962261 411.4199619 135.962261 412.6959629 133.3942602 411.4199619 130.8262594"/>
  <polygon class="st0" points="408.8681736 74.3326605 406.3161716 74.3326605 405.0401706 76.9006613 406.3161716 79.4686621 408.8681736 79.4686621 410.1441745 76.9006613 408.8681736 74.3326605"/>
  <polygon class="st0" points="403.7647495 74.3326605 401.2127475 74.3326605 399.9367466 76.9006613 401.2127475 79.4686621 403.7647495 79.4686621 405.0407505 76.9006613 403.7647495 74.3326605"/>
  <polygon class="st0" points="413.9716587 74.3326605 411.4196567 74.3326605 410.1436557 76.9006613 411.4196567 79.4686621 413.9716587 79.4686621 415.2476597 76.9006613 413.9716587 74.3326605"/>
  <polygon class="st0" points="408.8666477 84.6042593 406.3146457 84.6042593 405.0386448 87.1722601 406.3146457 89.7402609 408.8666477 89.7402609 410.1426487 87.1722601 408.8666477 84.6042593"/>
  <polygon class="st0" points="403.7615757 84.6042593 401.2095737 84.6042593 399.9335727 87.1722601 401.2095737 89.7402609 403.7615757 89.7402609 405.0375766 87.1722601 403.7615757 84.6042593"/>
  <polygon class="st0" points="413.9716587 84.6042593 411.4196567 84.6042593 410.1436557 87.1722601 411.4196567 89.7402609 413.9716587 89.7402609 415.2476597 87.1722601 413.9716587 84.6042593"/>
  <polygon class="st0" points="408.8681736 105.1473578 406.3161716 105.1473578 405.0401706 107.7153586 406.3161716 110.2833594 408.8681736 110.2833594 410.1441745 107.7153586 408.8681736 105.1473578"/>
  <polygon class="st0" points="403.7647495 105.1473578 401.2127475 105.1473578 399.9367466 107.7153586 401.2127475 110.2833594 403.7647495 110.2833594 405.0407505 107.7153586 403.7647495 105.1473578"/>
  <polygon class="st0" points="413.9716587 105.1473578 411.4196567 105.1473578 410.1436557 107.7153586 411.4196567 110.2833594 413.9716587 110.2833594 415.2476597 107.7153586 413.9716587 105.1473578"/>
  <polygon class="st0" points="408.8681736 94.8757589 406.3161716 94.8757589 405.0401706 97.4437597 406.3161716 100.0117605 408.8681736 100.0117605 410.1441745 97.4437597 408.8681736 94.8757589"/>
  <polygon class="st0" points="403.7647495 94.8757589 401.2127475 94.8757589 399.9367466 97.4437597 401.2127475 100.0117605 403.7647495 100.0117605 405.0407505 97.4437597 403.7647495 94.8757589"/>
  <polygon class="st0" points="413.9716587 94.8757589 411.4196567 94.8757589 410.1436557 97.4437597 411.4196567 100.0117605 413.9716587 100.0117605 415.2476597 97.4437597 413.9716587 94.8757589"/>
  <polygon class="st0" points="408.8681736 115.4188574 406.3161716 115.4188574 405.0401706 117.9868582 406.3161716 120.554859 408.8681736 120.554859 410.1441745 117.9868582 408.8681736 115.4188574"/>
  <polygon class="st0" points="403.7647495 115.4188574 401.2127475 115.4188574 399.9367466 117.9868582 401.2127475 120.554859 403.7647495 120.554859 405.0407505 117.9868582 403.7647495 115.4188574"/>
  <polygon class="st0" points="413.9716587 115.4188574 411.4196567 115.4188574 410.1436557 117.9868582 411.4196567 120.554859 413.9716587 120.554859 415.2476597 117.9868582 413.9716587 115.4188574"/>
  <polygon class="st0" points="408.8681736 125.69046 406.3161716 125.69046 405.0401706 128.2584608 406.3161716 130.8264616 408.8681736 130.8264616 410.1441745 128.2584608 408.8681736 125.69046"/>
  <polygon class="st0" points="403.7647495 125.69046 401.2127475 125.69046 399.9367466 128.2584608 401.2127475 130.8264616 403.7647495 130.8264616 405.0407505 128.2584608 403.7647495 125.69046"/>
  <polygon class="st0" points="413.9716587 125.69046 411.4196567 125.69046 410.1436557 128.2584608 411.4196567 130.8264616 413.9716587 130.8264616 415.2476597 128.2584608 413.9716587 125.69046"/>
  <polygon class="st0" points="408.8681736 135.9619597 406.3161716 135.9619597 405.0401706 138.5299605 406.3161716 141.0979593 408.8681736 141.0979593 410.1441745 138.5299605 408.8681736 135.9619597"/>
  <polygon class="st0" points="403.7647495 135.9619597 401.2127475 135.9619597 399.9367466 138.5299605 401.2127475 141.0979593 403.7647495 141.0979593 405.0407505 138.5299605 403.7647495 135.9619597"/>
  <polygon class="st0" points="413.9716587 135.9619597 411.4196567 135.9619597 410.1436557 138.5299605 411.4196567 141.0979593 413.9716587 141.0979593 415.2476597 138.5299605 413.9716587 135.9619597"/>
</svg>