<svg width="117" height="34" viewBox="0 0 117 34" fill="none" xmlns="http://www.w3.org/2000/svg">
<path d="M48.5238 11.2179C47.7839 11.2179 47.1179 11.3632 46.5262 11.6538C45.9343 11.9446 45.4636 12.3398 45.1138 12.8395V11.3395H41.6637V22.6503H45.1138V16.5084C45.1138 15.7517 45.3088 15.1641 45.6991 14.7449C46.089 14.3263 46.6137 14.1166 47.2729 14.1166C47.9316 14.1166 48.4563 14.3263 48.8465 14.7449C49.2365 15.1641 49.4317 15.7517 49.4317 16.5084V22.6503H52.8617V16.0423C52.8617 14.5422 52.4683 13.3636 51.6814 12.5051C50.8945 11.647 49.8419 11.2179 48.5238 11.2179ZM31.3333 15.9004C31.4273 15.2789 31.6729 14.7992 32.0699 14.4611C32.4666 14.1236 32.9542 13.9543 33.5326 13.9543C34.1381 13.9543 34.6423 14.1301 35.046 14.4815C35.4495 14.8331 35.6512 15.306 35.6512 15.9004H31.3333ZM39.1822 16.8126C39.1822 15.6774 38.9433 14.6841 38.4658 13.8328C37.9881 12.9814 37.3258 12.3262 36.4784 11.8666C35.631 11.4073 34.6626 11.1775 33.5732 11.1775C32.4565 11.1775 31.4678 11.4141 30.6072 11.887C29.7463 12.3601 29.0769 13.0357 28.5995 13.9139C28.122 14.7924 27.8834 15.8193 27.8834 16.9949C27.8834 18.1707 28.1254 19.1979 28.6096 20.0761C29.0938 20.9546 29.7662 21.6302 30.6274 22.1031C31.4881 22.5762 32.47 22.8125 33.5732 22.8125C34.4876 22.8125 35.315 22.6438 36.0547 22.3057C36.7943 21.9682 37.4096 21.5019 37.9009 20.9071C38.3918 20.3127 38.7314 19.6437 38.9199 18.9003H35.2478C34.9113 19.6301 34.3126 19.995 33.4519 19.995C32.8735 19.995 32.3859 19.8093 31.9892 19.4376C31.5922 19.0659 31.3668 18.5289 31.3134 17.8262H39.1217C39.1619 17.4748 39.1822 17.1368 39.1822 16.8126ZM22.5772 16.9748C22.5772 17.8397 22.3352 18.5255 21.8507 19.0323C21.3665 19.5388 20.7816 19.7923 20.0954 19.7923C19.4095 19.7923 18.8276 19.5425 18.3502 19.0422C17.8727 18.5424 17.6339 17.8598 17.6339 16.9949C17.6339 16.1302 17.8727 15.4479 18.3502 14.9476C18.8276 14.4478 19.4095 14.1977 20.0954 14.1977C20.7948 14.1977 21.3834 14.4444 21.8609 14.9374C22.3383 15.4309 22.5772 16.1102 22.5772 16.9748ZM17.6541 12.941V11.3395H14.2039V28.0423H17.6541V21.0694C17.9903 21.583 18.4577 22.0016 19.0564 22.3261C19.6548 22.6503 20.3441 22.8125 21.1246 22.8125C22.0527 22.8125 22.8931 22.5728 23.6466 22.0929C24.3998 21.6135 24.9948 20.9309 25.432 20.0456C25.8693 19.1606 26.0879 18.1371 26.0879 16.9748C26.0879 15.8125 25.8693 14.7924 25.432 13.9139C24.9948 13.0357 24.3998 12.3601 23.6466 11.887C22.8931 11.4141 22.0527 11.1775 21.1246 11.1775C20.3306 11.1775 19.6379 11.3395 19.0462 11.6639C18.4543 11.9882 17.9903 12.4138 17.6541 12.941ZM5.81071 19.8124C5.15151 19.8124 4.60316 19.5693 4.16622 19.0829C3.72901 18.5964 3.51068 17.9005 3.51068 16.9949C3.51068 16.0762 3.73267 15.3769 4.17635 14.897C4.62032 14.4176 5.17824 14.1773 5.85095 14.1773C6.50987 14.1773 7.06469 14.4207 7.51569 14.9072C7.96613 15.3936 8.19149 16.0898 8.19149 16.9949C8.19149 17.9005 7.95938 18.5964 7.49543 19.0829C7.03149 19.5693 6.46963 19.8124 5.81071 19.8124ZM5.81071 22.8125C6.9136 22.8125 7.91211 22.5762 8.80681 22.1031C9.70121 21.6302 10.4074 20.9512 10.9254 20.066C11.4431 19.1809 11.7022 18.1574 11.7022 16.9949C11.7022 15.8329 11.4464 14.8094 10.9355 13.9241C10.4243 13.0391 9.72485 12.3601 8.83719 11.887C7.94953 11.4141 6.95384 11.1775 5.85095 11.1775C4.74806 11.1775 3.75264 11.4141 2.86498 11.887C1.97733 12.3601 1.27761 13.0391 0.766678 13.9241C0.255184 14.8094 0 15.8329 0 16.9949C0 18.1707 0.252089 19.1979 0.756549 20.0761C1.26101 20.9546 1.95341 21.6302 2.8346 22.1031C3.7155 22.5762 4.70754 22.8125 5.81071 22.8125Z" fill="#FFF481"/>
<path d="M58.1309 5.58687C57.5677 5.99136 57.1113 6.88258 57.1113 7.57792V26.4219C57.1113 27.1172 57.5677 28.0087 58.1309 28.4129L65.4908 33.6966C66.0537 34.1011 66.967 34.1011 67.53 33.6966L74.8901 28.4129C75.4533 28.0087 75.91 27.1172 75.91 26.4219V7.57792C75.91 6.88258 75.4533 5.99136 74.8901 5.58687L67.53 0.303151C66.967 -0.10105 66.0537 -0.10105 65.4908 0.303151L58.1309 5.58687Z" fill="#FFF381"/>
<path d="M64.5135 21.6206H63.7955L63.4365 22.3465L63.7955 23.0723H64.5135L64.8725 22.3465L64.5135 21.6206Z" fill="#005E5E"/>
<path d="M63.078 21.6206H62.36L62.001 22.3465L62.36 23.0723H63.078L63.437 22.3465L63.078 21.6206Z" fill="#005E5E"/>
<path d="M61.6415 21.6206H60.9235L60.5645 22.3465L60.9235 23.0723H61.6415L62.0005 22.3465L61.6415 21.6206Z" fill="#005E5E"/>
<path d="M69.5389 8.55566H68.8209L68.4619 9.28153L68.8209 10.0074H69.5389L69.8979 9.28153L69.5389 8.55566Z" fill="#005E5E"/>
<path d="M70.9745 8.55566H70.2565L69.8975 9.28153L70.2565 10.0074H70.9745L71.3335 9.28153L70.9745 8.55566Z" fill="#005E5E"/>
<path d="M69.5389 14.3623H68.8209L68.4619 15.0882L68.8209 15.814H69.5389L69.8979 15.0882L69.5389 14.3623Z" fill="#005E5E"/>
<path d="M70.9745 14.3623H70.2565L69.8975 15.0882L70.2565 15.814H70.9745L71.3335 15.0882L70.9745 14.3623Z" fill="#005E5E"/>
<path d="M69.5379 11.459H68.8199L68.4609 12.1849L68.8199 12.9107H69.5379L69.8969 12.1849L69.5379 11.459Z" fill="#005E5E"/>
<path d="M70.9745 11.459H70.2565L69.8975 12.1849L70.2565 12.9107H70.9745L71.3335 12.1849L70.9745 11.459Z" fill="#005E5E"/>
<path d="M69.5389 17.2656H68.8209L68.4619 17.9915L68.8209 18.7174H69.5389L69.8979 17.9915L69.5389 17.2656Z" fill="#005E5E"/>
<path d="M70.9745 17.2656H70.2565L69.8975 17.9915L70.2565 18.7174H70.9745L71.3335 17.9915L70.9745 17.2656Z" fill="#005E5E"/>
<path d="M69.5389 20.1689H68.8209L68.4619 20.8948L68.8209 21.6207H69.5389L69.8979 20.8948L69.5389 20.1689Z" fill="#005E5E"/>
<path d="M70.9745 20.1689H70.2565L69.8975 20.8948L70.2565 21.6207H70.9745L71.3335 20.8948L70.9745 20.1689Z" fill="#005E5E"/>
<path d="M69.5389 23.0723H68.8209L68.4619 23.7981L68.8209 24.524H69.5389L69.8979 23.7981L69.5389 23.0723Z" fill="#005E5E"/>
<path d="M70.9745 23.0723H70.2565L69.8975 23.7981L70.2565 24.524H70.9745L71.3335 23.7981L70.9745 23.0723Z" fill="#005E5E"/>
<path d="M62.3602 23.0723H61.6422L61.2832 23.7981L61.6422 24.524H62.3602L62.7192 23.7981L62.3602 23.0723Z" fill="#005E5E"/>
<path d="M63.7958 23.0723H63.0778L62.7188 23.7981L63.0778 24.524H63.7958L64.1548 23.7981L63.7958 23.0723Z" fill="#005E5E"/>
<path d="M70.2567 7.104H69.5387L69.1797 7.82987L69.5387 8.55574H70.2567L70.6157 7.82987L70.2567 7.104Z" fill="#005E5E"/>
<path d="M68.8211 7.104H68.1031L67.7441 7.82987L68.1031 8.55574H68.8211L69.1802 7.82987L68.8211 7.104Z" fill="#005E5E"/>
<path d="M71.6922 7.104H70.9742L70.6152 7.82987L70.9742 8.55574H71.6922L72.0512 7.82987L71.6922 7.104Z" fill="#005E5E"/>
<path d="M70.2567 10.0073H69.5387L69.1797 10.7332L69.5387 11.4591H70.2567L70.6157 10.7332L70.2567 10.0073Z" fill="#005E5E"/>
<path d="M68.8202 10.0073H68.1022L67.7432 10.7332L68.1022 11.4591H68.8202L69.1792 10.7332L68.8202 10.0073Z" fill="#005E5E"/>
<path d="M71.6922 10.0073H70.9742L70.6152 10.7332L70.9742 11.4591H71.6922L72.0512 10.7332L71.6922 10.0073Z" fill="#005E5E"/>
<path d="M70.2567 15.814H69.5387L69.1797 16.5398L69.5387 17.2657H70.2567L70.6157 16.5398L70.2567 15.814Z" fill="#005E5E"/>
<path d="M68.8211 15.814H68.1031L67.7441 16.5398L68.1031 17.2657H68.8211L69.1802 16.5398L68.8211 15.814Z" fill="#005E5E"/>
<path d="M71.6922 15.814H70.9742L70.6152 16.5398L70.9742 17.2657H71.6922L72.0512 16.5398L71.6922 15.814Z" fill="#005E5E"/>
<path d="M70.2567 12.9106H69.5387L69.1797 13.6365L69.5387 14.3624H70.2567L70.6157 13.6365L70.2567 12.9106Z" fill="#005E5E"/>
<path d="M68.8211 12.9106H68.1031L67.7441 13.6365L68.1031 14.3624H68.8211L69.1802 13.6365L68.8211 12.9106Z" fill="#005E5E"/>
<path d="M71.6922 12.9106H70.9742L70.6152 13.6365L70.9742 14.3624H71.6922L72.0512 13.6365L71.6922 12.9106Z" fill="#005E5E"/>
<path d="M70.2567 18.7173H69.5387L69.1797 19.4432L69.5387 20.169H70.2567L70.6157 19.4432L70.2567 18.7173Z" fill="#005E5E"/>
<path d="M68.8211 18.7173H68.1031L67.7441 19.4432L68.1031 20.169H68.8211L69.1802 19.4432L68.8211 18.7173Z" fill="#005E5E"/>
<path d="M71.6922 18.7173H70.9742L70.6152 19.4432L70.9742 20.169H71.6922L72.0512 19.4432L71.6922 18.7173Z" fill="#005E5E"/>
<path d="M70.2567 21.6206H69.5387L69.1797 22.3465L69.5387 23.0723H70.2567L70.6157 22.3465L70.2567 21.6206Z" fill="#005E5E"/>
<path d="M68.8211 21.6206H68.1031L67.7441 22.3465L68.1031 23.0723H68.8211L69.1802 22.3465L68.8211 21.6206Z" fill="#005E5E"/>
<path d="M71.6922 21.6206H70.9742L70.6152 22.3465L70.9742 23.0723H71.6922L72.0512 22.3465L71.6922 21.6206Z" fill="#005E5E"/>
<path d="M64.5135 24.5239H63.7955L63.4365 25.2498L63.7955 25.9757H64.5135L64.8725 25.2498L64.5135 24.5239Z" fill="#005E5E"/>
<path d="M70.2567 24.5239H69.5387L69.1797 25.2498L69.5387 25.9757H70.2567L70.6157 25.2498L70.2567 24.5239Z" fill="#005E5E"/>
<path d="M63.077 24.5239H62.359L62 25.2498L62.359 25.9757H63.077L63.436 25.2498L63.077 24.5239Z" fill="#005E5E"/>
<path d="M68.8211 24.5239H68.1031L67.7441 25.2498L68.1031 25.9757H68.8211L69.1802 25.2498L68.8211 24.5239Z" fill="#005E5E"/>
<path d="M61.6415 24.5239H60.9235L60.5645 25.2498L60.9235 25.9757H61.6415L62.0005 25.2498L61.6415 24.5239Z" fill="#005E5E"/>
<path d="M65.9491 24.5239H65.2311L64.8721 25.2498L65.2311 25.9757H65.9491L66.3081 25.2498L65.9491 24.5239Z" fill="#005E5E"/>
<path d="M71.6922 24.5239H70.9742L70.6152 25.2498L70.9742 25.9757H71.6922L72.0512 25.2498L71.6922 24.5239Z" fill="#005E5E"/>
<path d="M67.3846 24.5239H66.6666L66.3076 25.2498L66.6666 25.9757H67.3846L67.7436 25.2498L67.3846 24.5239Z" fill="#005E5E"/>
<path d="M66.6678 25.9756H65.9498L65.5908 26.7015L65.9498 27.4273H66.6678L67.0268 26.7015L66.6678 25.9756Z" fill="#005E5E"/>
<path d="M65.2313 25.9756H64.5133L64.1543 26.7015L64.5133 27.4273H65.2313L65.5903 26.7015L65.2313 25.9756Z" fill="#005E5E"/>
<path d="M63.7958 25.9756H63.0778L62.7188 26.7015L63.0778 27.4273H63.7958L64.1548 26.7015L63.7958 25.9756Z" fill="#005E5E"/>
<path d="M68.1044 25.9756H67.3863L67.0273 26.7015L67.3863 27.4273H68.1044L68.4634 26.7015L68.1044 25.9756Z" fill="#005E5E"/>
<path d="M78.2598 5.58687C77.6966 5.99136 77.2402 6.88258 77.2402 7.57792V26.4219C77.2402 27.1172 77.6966 28.0087 78.2598 28.4129L85.6197 33.6966C86.1826 34.1011 87.0959 34.1011 87.6589 33.6966L95.019 28.4129C95.5823 28.0087 96.0389 27.1172 96.0389 26.4219V7.57792C96.0389 6.88258 95.5823 5.99136 95.019 5.58687L87.6589 0.303151C87.0959 -0.10105 86.1826 -0.10105 85.6197 0.303151L78.2598 5.58687Z" fill="#FFF381"/>
<path d="M86.2811 8.55566H85.5631L85.2041 9.28153L85.5631 10.0074H86.2811L86.6401 9.28153L86.2811 8.55566Z" fill="#005E5E"/>
<path d="M87.7167 8.55566H86.9987L86.6396 9.28153L86.9987 10.0074H87.7167L88.0757 9.28153L87.7167 8.55566Z" fill="#005E5E"/>
<path d="M86.2811 14.3623H85.5631L85.2041 15.0882L85.5631 15.814H86.2811L86.6401 15.0882L86.2811 14.3623Z" fill="#005E5E"/>
<path d="M87.7167 14.3623H86.9987L86.6396 15.0882L86.9987 15.814H87.7167L88.0757 15.0882L87.7167 14.3623Z" fill="#005E5E"/>
<path d="M86.2801 11.459H85.5621L85.2031 12.1849L85.5621 12.9107H86.2801L86.6391 12.1849L86.2801 11.459Z" fill="#005E5E"/>
<path d="M87.7167 11.459H86.9987L86.6396 12.1849L86.9987 12.9107H87.7167L88.0757 12.1849L87.7167 11.459Z" fill="#005E5E"/>
<path d="M86.2811 17.2656H85.5631L85.2041 17.9915L85.5631 18.7174H86.2811L86.6401 17.9915L86.2811 17.2656Z" fill="#005E5E"/>
<path d="M87.7167 17.2656H86.9987L86.6396 17.9915L86.9987 18.7174H87.7167L88.0757 17.9915L87.7167 17.2656Z" fill="#005E5E"/>
<path d="M86.2811 20.1689H85.5631L85.2041 20.8948L85.5631 21.6207H86.2811L86.6401 20.8948L86.2811 20.1689Z" fill="#005E5E"/>
<path d="M87.7167 20.1689H86.9987L86.6396 20.8948L86.9987 21.6207H87.7167L88.0757 20.8948L87.7167 20.1689Z" fill="#005E5E"/>
<path d="M86.2811 23.0723H85.5631L85.2041 23.7981L85.5631 24.524H86.2811L86.6401 23.7981L86.2811 23.0723Z" fill="#005E5E"/>
<path d="M87.7167 23.0723H86.9987L86.6396 23.7981L86.9987 24.524H87.7167L88.0757 23.7981L87.7167 23.0723Z" fill="#005E5E"/>
<path d="M86.9989 7.104H86.2809L85.9219 7.82987L86.2809 8.55574H86.9989L87.3579 7.82987L86.9989 7.104Z" fill="#005E5E"/>
<path d="M85.5633 7.104H84.8453L84.4863 7.82987L84.8453 8.55574H85.5633L85.9223 7.82987L85.5633 7.104Z" fill="#005E5E"/>
<path d="M88.4344 7.104H87.7164L87.3574 7.82987L87.7164 8.55574H88.4344L88.7934 7.82987L88.4344 7.104Z" fill="#005E5E"/>
<path d="M86.9989 10.0073H86.2809L85.9219 10.7332L86.2809 11.4591H86.9989L87.3579 10.7332L86.9989 10.0073Z" fill="#005E5E"/>
<path d="M85.5624 10.0073H84.8444L84.4854 10.7332L84.8444 11.4591H85.5624L85.9214 10.7332L85.5624 10.0073Z" fill="#005E5E"/>
<path d="M88.4344 10.0073H87.7164L87.3574 10.7332L87.7164 11.4591H88.4344L88.7934 10.7332L88.4344 10.0073Z" fill="#005E5E"/>
<path d="M86.9989 15.814H86.2809L85.9219 16.5398L86.2809 17.2657H86.9989L87.3579 16.5398L86.9989 15.814Z" fill="#005E5E"/>
<path d="M85.5633 15.814H84.8453L84.4863 16.5398L84.8453 17.2657H85.5633L85.9223 16.5398L85.5633 15.814Z" fill="#005E5E"/>
<path d="M88.4344 15.814H87.7164L87.3574 16.5398L87.7164 17.2657H88.4344L88.7934 16.5398L88.4344 15.814Z" fill="#005E5E"/>
<path d="M86.9989 12.9106H86.2809L85.9219 13.6365L86.2809 14.3624H86.9989L87.3579 13.6365L86.9989 12.9106Z" fill="#005E5E"/>
<path d="M85.5633 12.9106H84.8453L84.4863 13.6365L84.8453 14.3624H85.5633L85.9223 13.6365L85.5633 12.9106Z" fill="#005E5E"/>
<path d="M88.4344 12.9106H87.7164L87.3574 13.6365L87.7164 14.3624H88.4344L88.7934 13.6365L88.4344 12.9106Z" fill="#005E5E"/>
<path d="M86.9989 18.7173H86.2809L85.9219 19.4432L86.2809 20.169H86.9989L87.3579 19.4432L86.9989 18.7173Z" fill="#005E5E"/>
<path d="M85.5633 18.7173H84.8453L84.4863 19.4432L84.8453 20.169H85.5633L85.9223 19.4432L85.5633 18.7173Z" fill="#005E5E"/>
<path d="M88.4344 18.7173H87.7164L87.3574 19.4432L87.7164 20.169H88.4344L88.7934 19.4432L88.4344 18.7173Z" fill="#005E5E"/>
<path d="M86.9989 21.6206H86.2809L85.9219 22.3465L86.2809 23.0723H86.9989L87.3579 22.3465L86.9989 21.6206Z" fill="#005E5E"/>
<path d="M85.5633 21.6206H84.8453L84.4863 22.3465L84.8453 23.0723H85.5633L85.9223 22.3465L85.5633 21.6206Z" fill="#005E5E"/>
<path d="M88.4344 21.6206H87.7164L87.3574 22.3465L87.7164 23.0723H88.4344L88.7934 22.3465L88.4344 21.6206Z" fill="#005E5E"/>
<path d="M86.9989 24.5239H86.2809L85.9219 25.2498L86.2809 25.9757H86.9989L87.3579 25.2498L86.9989 24.5239Z" fill="#005E5E"/>
<path d="M85.5633 24.5239H84.8453L84.4863 25.2498L84.8453 25.9757H85.5633L85.9223 25.2498L85.5633 24.5239Z" fill="#005E5E"/>
<path d="M88.4344 24.5239H87.7164L87.3574 25.2498L87.7164 25.9757H88.4344L88.7934 25.2498L88.4344 24.5239Z" fill="#005E5E"/>
<path d="M98.3878 5.58687C97.8245 5.99136 97.3682 6.88258 97.3682 7.57792V26.4219C97.3682 27.1172 97.8245 28.0087 98.3878 28.4129L105.748 33.6966C106.311 34.1011 107.224 34.1011 107.787 33.6966L115.147 28.4129C115.71 28.0087 116.167 27.1172 116.167 26.4219V7.57792C116.167 6.88258 115.71 5.99136 115.147 5.58687L107.787 0.303151C107.224 -0.10105 106.311 -0.10105 105.748 0.303151L98.3878 5.58687Z" fill="#FFF381"/>
<path d="M106.409 8.55566H105.691L105.332 9.28153L105.691 10.0074H106.409L106.768 9.28153L106.409 8.55566Z" fill="#005E5E"/>
<path d="M107.845 8.55566H107.127L106.768 9.28153L107.127 10.0074H107.845L108.204 9.28153L107.845 8.55566Z" fill="#005E5E"/>
<path d="M106.409 14.3623H105.691L105.332 15.0882L105.691 15.814H106.409L106.768 15.0882L106.409 14.3623Z" fill="#005E5E"/>
<path d="M107.845 14.3623H107.127L106.768 15.0882L107.127 15.814H107.845L108.204 15.0882L107.845 14.3623Z" fill="#005E5E"/>
<path d="M106.408 11.459H105.69L105.331 12.1849L105.69 12.9107H106.408L106.767 12.1849L106.408 11.459Z" fill="#005E5E"/>
<path d="M107.845 11.459H107.127L106.768 12.1849L107.127 12.9107H107.845L108.204 12.1849L107.845 11.459Z" fill="#005E5E"/>
<path d="M106.409 17.2656H105.691L105.332 17.9915L105.691 18.7174H106.409L106.768 17.9915L106.409 17.2656Z" fill="#005E5E"/>
<path d="M107.845 17.2656H107.127L106.768 17.9915L107.127 18.7174H107.845L108.204 17.9915L107.845 17.2656Z" fill="#005E5E"/>
<path d="M106.409 20.1689H105.691L105.332 20.8948L105.691 21.6207H106.409L106.768 20.8948L106.409 20.1689Z" fill="#005E5E"/>
<path d="M107.845 20.1689H107.127L106.768 20.8948L107.127 21.6207H107.845L108.204 20.8948L107.845 20.1689Z" fill="#005E5E"/>
<path d="M106.409 23.0723H105.691L105.332 23.7981L105.691 24.524H106.409L106.768 23.7981L106.409 23.0723Z" fill="#005E5E"/>
<path d="M107.845 23.0723H107.127L106.768 23.7981L107.127 24.524H107.845L108.204 23.7981L107.845 23.0723Z" fill="#005E5E"/>
<path d="M107.127 7.104H106.409L106.05 7.82987L106.409 8.55574H107.127L107.486 7.82987L107.127 7.104Z" fill="#005E5E"/>
<path d="M105.691 7.104H104.973L104.614 7.82987L104.973 8.55574H105.691L106.05 7.82987L105.691 7.104Z" fill="#005E5E"/>
<path d="M108.562 7.104H107.844L107.485 7.82987L107.844 8.55574H108.562L108.921 7.82987L108.562 7.104Z" fill="#005E5E"/>
<path d="M107.127 10.0073H106.409L106.05 10.7332L106.409 11.4591H107.127L107.486 10.7332L107.127 10.0073Z" fill="#005E5E"/>
<path d="M105.69 10.0073H104.972L104.613 10.7332L104.972 11.4591H105.69L106.049 10.7332L105.69 10.0073Z" fill="#005E5E"/>
<path d="M108.562 10.0073H107.844L107.485 10.7332L107.844 11.4591H108.562L108.921 10.7332L108.562 10.0073Z" fill="#005E5E"/>
<path d="M107.127 15.814H106.409L106.05 16.5398L106.409 17.2657H107.127L107.486 16.5398L107.127 15.814Z" fill="#005E5E"/>
<path d="M105.691 15.814H104.973L104.614 16.5398L104.973 17.2657H105.691L106.05 16.5398L105.691 15.814Z" fill="#005E5E"/>
<path d="M108.562 15.814H107.844L107.485 16.5398L107.844 17.2657H108.562L108.921 16.5398L108.562 15.814Z" fill="#005E5E"/>
<path d="M107.127 12.9106H106.409L106.05 13.6365L106.409 14.3624H107.127L107.486 13.6365L107.127 12.9106Z" fill="#005E5E"/>
<path d="M105.691 12.9106H104.973L104.614 13.6365L104.973 14.3624H105.691L106.05 13.6365L105.691 12.9106Z" fill="#005E5E"/>
<path d="M108.562 12.9106H107.844L107.485 13.6365L107.844 14.3624H108.562L108.921 13.6365L108.562 12.9106Z" fill="#005E5E"/>
<path d="M107.127 18.7173H106.409L106.05 19.4432L106.409 20.169H107.127L107.486 19.4432L107.127 18.7173Z" fill="#005E5E"/>
<path d="M105.691 18.7173H104.973L104.614 19.4432L104.973 20.169H105.691L106.05 19.4432L105.691 18.7173Z" fill="#005E5E"/>
<path d="M108.562 18.7173H107.844L107.485 19.4432L107.844 20.169H108.562L108.921 19.4432L108.562 18.7173Z" fill="#005E5E"/>
<path d="M107.127 21.6206H106.409L106.05 22.3465L106.409 23.0723H107.127L107.486 22.3465L107.127 21.6206Z" fill="#005E5E"/>
<path d="M105.691 21.6206H104.973L104.614 22.3465L104.973 23.0723H105.691L106.05 22.3465L105.691 21.6206Z" fill="#005E5E"/>
<path d="M108.562 21.6206H107.844L107.485 22.3465L107.844 23.0723H108.562L108.921 22.3465L108.562 21.6206Z" fill="#005E5E"/>
<path d="M107.127 24.5239H106.409L106.05 25.2498L106.409 25.9757H107.127L107.486 25.2498L107.127 24.5239Z" fill="#005E5E"/>
<path d="M105.691 24.5239H104.973L104.614 25.2498L104.973 25.9757H105.691L106.05 25.2498L105.691 24.5239Z" fill="#005E5E"/>
<path d="M108.562 24.5239H107.844L107.485 25.2498L107.844 25.9757H108.562L108.921 25.2498L108.562 24.5239Z" fill="#005E5E"/>
</svg>
